{"glyphs":{"$":{"x_min":0,"x_max":518,"ha":518,"o":"m 460 616 q 472 587 466 554 q 465 548 464 543 q 463 541 463 539 q 451 502 422 475 q 412 467 404 476 q 395 486 405 494 q 439 525 442 569 q 443 599 427 622 q 402 659 341 659 q 327 659 313 658 q 312 575 310 344 q 342 328 364 315 q 385 302 406 284 q 428 265 438 242 q 449 218 448 190 q 447 146 412 102 q 377 59 308 40 q 308 17 308 9 q 308 -3 300 -12 q 293 -20 281 -21 q 280 -21 279 -21 q 268 -21 260 -14 q 251 -7 249 5 q 247 15 246 30 q 236 30 226 30 q 224 30 221 30 q 155 30 137 78 q 127 105 139 138 q 151 171 181 196 q 190 204 198 194 q 207 185 197 177 q 174 157 164 132 q 154 106 161 86 q 173 55 221 55 q 224 55 226 55 q 234 55 244 56 q 239 139 238 306 q 212 318 198 324 q 185 331 162 344 q 138 357 125 367 q 112 377 95 392 q 78 408 70 424 q 61 439 55 459 q 49 479 50 502 q 52 564 108 620 q 163 677 245 694 q 246 712 247 716 q 249 729 260 736 q 270 743 284 742 q 297 740 306 732 q 314 724 313 714 q 313 712 313 699 q 381 696 415 672 q 449 647 460 616 z m 238 380 q 239 532 243 642 q 208 629 182 607 q 158 587 144 562 q 129 536 128 513 q 127 469 156 438 q 184 408 238 380 z m 389 170 q 390 227 310 271 q 310 247 310 236 q 310 211 310 154 q 309 96 309 73 q 345 89 366 116 q 388 142 389 170 z"},"<":{"x_min":0,"x_max":568,"ha":568,"o":"m 506 104 q 528 86 512 63 q 501 48 484 48 q 476 48 470 52 q 441 69 240 202 q 83 307 67 316 q 50 326 50 342 q 50 347 51 350 q 53 362 62 371 q 109 423 255 523 q 401 623 452 652 q 466 659 478 656 q 491 652 498 642 q 504 632 503 621 q 502 610 494 604 q 467 583 265 444 q 160 371 129 349 q 210 308 343 218 q 476 129 506 104 z"},"'":{"x_min":0,"x_max":184,"ha":184,"o":"m 119 719 q 134 719 134 700 q 134 678 121 635 q 105 582 86 582 q 75 582 70 594 q 65 607 59 640 q 54 670 50 704 q 49 710 53 714 q 57 718 63 718 q 71 718 89 719 q 110 719 119 719 z"},"=":{"x_min":0,"x_max":703,"ha":703,"o":"m 83 390 q 68 390 58 398 q 51 406 50 416 q 50 426 58 434 q 65 443 80 445 q 167 454 378 452 q 588 451 625 445 q 640 443 647 433 q 654 423 653 411 q 652 399 644 391 q 635 383 624 383 l 623 383 q 587 384 280 387 q 101 389 83 390 z m 625 320 q 640 318 647 308 q 654 298 653 287 q 652 275 644 266 q 635 258 624 258 l 623 258 q 583 259 280 263 q 99 265 83 265 q 68 265 58 274 q 51 281 50 292 q 50 302 58 310 q 65 319 80 321 q 167 330 378 328 q 588 327 625 320 z"},"a":{"x_min":0,"x_max":347,"ha":347,"o":"m 377 157 l 376 153 q 330 -13 271 -13 q 252 -13 238 2 q 217 26 208 92 q 204 81 199 70 q 183 36 162 15 q 135 -13 103 -13 q 53 -13 25 36 q 1 77 1 139 q 1 216 36 274 q 71 333 131 333 q 177 333 204 294 l 205 294 q 206 312 207 322 q 208 332 219 338 q 228 342 242 342 q 256 341 264 336 q 272 329 271 319 q 268 286 266 232 q 265 179 270 118 q 274 56 288 41 q 291 38 293 38 q 306 38 324 79 l 324 80 q 325 81 325 82 q 339 114 351 160 l 353 164 q 356 177 368 174 q 381 170 377 157 z m 202 216 l 202 217 q 202 219 201 222 q 200 250 186 271 q 173 292 149 292 q 114 292 93 246 q 72 202 72 140 q 72 92 85 60 q 98 27 118 27 q 148 27 176 81 q 176 82 176 82 q 200 134 202 184 l 202 185 q 201 200 202 216 z"},"L":{"x_min":0,"x_max":449,"ha":449,"o":"m 634 -48 q 539 -72 468 -72 q 423 -72 388 -64 q 354 -55 328 -38 q 301 -20 287 -8 q 273 5 252 29 q 246 35 241 41 q 227 5 206 -16 q 177 -46 135 -46 q 95 -46 72 -23 q 50 -3 50 28 q 50 41 54 54 q 54 54 55 55 q 63 81 88 98 q 112 115 147 115 q 174 115 196 107 q 208 180 208 376 q 209 573 221 647 q 244 780 320 780 q 325 780 329 776 q 333 772 333 767 q 333 762 329 758 q 325 754 320 754 q 312 754 307 748 q 295 737 288 706 q 282 676 280 636 q 278 596 277 547 q 276 498 277 449 q 277 377 277 312 q 277 248 270 181 q 264 114 250 68 q 257 61 271 46 q 293 21 306 8 q 320 -4 351 -22 q 382 -39 415 -44 q 448 -48 504 -44 q 559 -40 628 -23 q 641 -20 644 -32 q 647 -45 634 -48 z m 119 -9 q 170 -9 191 81 q 171 90 147 90 q 121 90 103 78 q 85 66 79 47 q 72 21 84 5 q 95 -9 119 -9 z"},"3":{"x_min":0,"x_max":424,"ha":424,"o":"m 345 313 q 394 267 394 192 q 394 116 344 51 q 294 -14 224 -14 q 152 -14 104 34 q 78 61 64 96 q 50 130 50 159 q 50 160 50 161 l 50 162 q 50 167 54 170 q 58 174 63 174 q 68 174 72 170 q 76 167 76 162 q 76 159 76 158 q 77 137 90 111 q 103 85 123 65 q 160 27 204 27 q 258 27 292 76 q 326 125 326 188 q 326 252 292 294 q 258 336 199 341 q 192 341 183 341 q 171 341 170 353 q 170 354 170 354 q 170 355 170 355 q 170 356 171 357 q 172 368 183 368 q 224 368 258 431 q 293 495 293 568 q 293 620 272 650 q 250 682 206 682 q 156 682 118 636 q 79 591 77 550 q 77 550 77 548 q 77 543 74 539 q 70 535 64 535 q 59 535 55 539 q 51 543 51 548 q 51 549 52 551 q 52 553 52 554 q 55 607 91 653 q 141 718 227 718 q 294 718 329 675 q 361 637 361 575 q 361 492 311 421 q 284 381 248 360 q 308 349 345 313 z"},"J":{"x_min":0,"x_max":454,"ha":454,"o":"m 444 722 q 449 722 452 718 q 456 714 456 709 q 456 704 452 700 q 449 696 444 696 q 435 696 429 690 q 418 679 412 652 q 405 625 403 590 q 401 555 400 512 q 400 470 401 428 q 403 369 401 306 q 399 244 394 190 q 390 136 374 90 q 359 43 334 18 q 304 -13 259 -13 q 199 -13 173 36 q 162 58 162 82 q 162 83 162 83 q 162 111 178 133 q 211 182 287 174 q 292 173 296 169 q 299 165 298 160 q 298 154 294 151 q 289 148 284 148 q 224 155 199 119 q 188 103 188 83 l 188 82 q 188 56 203 40 q 218 24 243 24 q 259 24 272 31 q 285 38 294 54 q 303 71 310 86 q 316 102 320 132 q 324 161 326 182 q 329 202 330 240 q 331 278 332 300 q 332 321 332 363 q 333 538 345 603 q 368 722 444 722 z m 594 803 q 594 801 594 801 q 593 779 578 764 q 561 748 524 740 q 487 733 455 732 q 423 731 358 732 q 320 733 280 732 q 239 731 204 728 q 170 725 140 716 q 111 706 95 691 q 77 673 76 645 q 76 643 76 641 q 76 636 72 632 q 68 629 62 629 q 57 629 54 632 q 50 636 50 641 q 50 698 86 732 q 114 759 166 771 q 219 783 274 782 q 330 780 390 778 q 444 773 496 774 q 549 776 563 790 q 568 794 568 801 q 568 802 568 803 q 568 808 572 812 q 576 816 581 816 q 586 816 590 812 q 594 808 594 803 z"},"V":{"x_min":0,"x_max":668,"ha":668,"o":"m 699 766 q 679 552 638 351 q 586 94 523 19 q 522 17 521 15 q 479 -33 433 -33 q 416 -33 402 -27 q 387 -21 376 -7 q 364 7 354 21 q 344 35 336 61 q 328 87 322 107 q 316 127 310 162 q 305 196 302 218 q 298 241 294 282 q 290 324 288 346 q 286 369 283 412 q 269 580 257 640 q 238 731 210 731 q 188 731 166 708 q 143 684 126 656 q 126 655 126 655 q 104 614 90 569 q 75 524 76 512 q 76 507 72 503 q 69 499 64 498 q 58 498 54 502 q 50 505 50 510 q 49 524 62 566 q 74 607 94 649 l 96 652 q 96 653 97 654 q 97 654 98 656 q 123 708 152 739 q 190 780 229 780 q 252 780 270 766 q 289 753 302 722 q 315 690 324 661 q 332 632 339 577 q 346 522 350 488 q 353 455 359 388 q 364 329 367 298 q 370 266 376 214 q 383 162 390 133 q 397 104 408 72 q 419 41 434 27 q 448 13 467 13 q 483 13 501 32 q 524 58 546 113 q 582 201 613 356 q 649 534 674 768 q 674 773 678 776 q 683 780 688 780 q 693 779 696 775 q 700 771 699 766 z"},"\"":{"x_min":0,"x_max":280,"ha":280,"o":"m 215 719 q 230 719 230 700 q 230 678 217 635 q 207 604 199 593 q 191 582 182 582 q 171 582 166 594 q 160 607 155 640 q 150 670 146 704 q 145 710 149 714 q 153 718 159 718 q 167 718 185 719 q 206 719 215 719 z m 119 719 q 134 719 134 700 q 134 678 121 635 q 105 582 86 582 q 75 582 70 594 q 65 607 59 640 q 53 674 50 704 q 49 710 53 714 q 57 718 63 718 q 71 718 89 719 q 110 719 119 719 z"},"7":{"x_min":0,"x_max":458,"ha":458,"o":"m 395 715 q 411 714 420 705 q 429 696 428 685 q 427 650 313 285 q 229 17 228 1 q 228 -14 218 -22 q 209 -31 196 -31 q 185 -31 176 -23 q 167 -15 167 -1 q 166 31 188 117 q 210 203 231 270 q 252 338 291 460 q 355 658 359 685 q 241 672 171 672 q 74 672 53 698 q 45 708 55 716 q 65 724 73 714 q 89 694 201 698 q 265 700 367 712 q 380 714 382 714 q 388 715 395 715 z"},"S":{"x_min":0,"x_max":491,"ha":491,"o":"m 456 695 q 469 664 468 628 l 467 628 q 467 607 462 590 q 462 590 461 589 q 450 548 423 518 q 414 509 404 518 q 395 526 404 535 q 427 561 437 596 q 437 597 437 598 q 438 598 438 598 q 441 611 442 625 q 444 670 421 701 q 395 737 341 737 q 246 737 183 675 q 158 651 144 620 q 129 589 128 561 q 128 533 137 508 q 146 483 158 466 q 170 449 196 430 q 221 410 238 400 q 254 390 286 371 q 319 353 336 342 q 352 332 378 312 q 404 292 416 274 q 429 257 439 231 q 449 205 448 176 q 447 146 434 115 q 422 84 397 55 q 372 26 328 7 q 283 -12 226 -13 q 224 -13 221 -13 q 160 -13 140 36 q 127 68 138 108 q 149 149 180 180 q 189 190 198 181 q 207 172 198 162 q 173 137 163 104 q 153 71 164 46 q 177 13 221 13 q 224 13 225 13 q 287 14 338 54 q 388 93 389 152 q 389 176 380 197 q 371 218 360 232 q 348 247 324 264 q 300 282 284 291 q 269 300 238 317 q 212 331 198 338 q 185 346 162 362 q 138 377 125 388 q 112 400 95 418 q 78 437 70 455 q 61 473 55 497 q 49 521 50 547 q 51 588 70 630 q 90 671 122 704 q 155 738 202 759 q 249 780 299 780 q 336 780 365 772 q 394 763 412 749 q 430 735 440 722 q 450 709 456 695 z"},"}":{"x_min":0,"x_max":264,"ha":264,"o":"m 214 357 q 214 356 214 356 q 214 355 214 354 q 213 342 201 342 q 199 342 197 343 q 184 342 175 333 q 165 323 160 298 q 155 272 154 252 q 154 231 155 192 q 155 145 154 120 q 153 96 145 64 q 137 31 120 14 q 99 -8 65 -8 q 64 -8 63 -8 q 57 -8 54 -4 q 50 -1 50 4 q 50 10 54 14 q 57 17 63 17 q 69 17 72 21 q 86 35 85 134 q 84 162 85 192 q 86 222 88 248 q 91 275 100 300 q 110 324 126 340 q 135 349 147 355 q 135 362 126 371 q 110 387 100 412 q 91 436 88 462 q 86 489 85 519 q 84 549 85 577 q 86 675 72 690 q 69 693 63 693 q 57 693 54 697 q 50 701 50 706 q 50 711 54 715 q 57 719 63 719 q 64 719 65 719 q 99 718 120 697 q 137 680 145 648 q 153 615 154 590 q 155 565 155 518 q 154 479 154 458 q 155 438 160 413 q 165 388 175 378 q 184 369 197 368 q 199 368 201 368 q 213 368 214 357 z"},"Z":{"x_min":0,"x_max":501,"ha":501,"o":"m 498 -11 q 487 -17 456 -31 q 425 -45 356 -66 q 288 -87 234 -91 q 231 -92 229 -92 q 192 -95 164 -95 q 101 -95 77 -78 q 16 -35 96 143 q 141 243 274 467 q 350 595 375 642 q 413 716 408 731 q 406 738 387 742 q 368 745 332 744 q 295 743 251 734 q 182 721 136 700 q 98 683 92 668 q 92 668 91 667 q 91 665 91 664 q 91 658 87 654 q 87 654 86 653 q 84 651 80 651 q 80 650 80 650 q 79 650 78 650 q 78 650 77 650 q 73 651 70 653 q 69 654 68 655 q 67 657 66 659 q 66 659 66 660 q 65 660 65 660 q 65 661 65 662 q 65 662 65 663 q 65 665 65 667 q 65 668 66 669 l 66 670 q 66 674 68 678 q 69 680 70 681 q 70 682 72 685 q 93 719 177 747 q 262 775 349 780 q 448 786 472 753 q 491 726 456 650 q 420 574 319 403 q 269 317 242 269 q 214 221 177 149 q 140 77 127 31 q 114 -15 122 -39 q 126 -51 137 -56 q 172 -70 227 -66 q 236 -65 241 -65 q 242 -65 242 -65 q 307 -58 378 -33 q 449 -8 486 11 q 498 17 504 6 q 510 -5 498 -11 z"},"x":{"x_min":0,"x_max":290,"ha":290,"o":"m 320 155 q 301 116 284 89 q 284 88 284 88 q 224 -13 169 -13 q 125 -13 76 38 q 67 47 59 57 q 33 9 17 -9 q 13 -13 7 -13 q 2 -13 -1 -9 q -11 -1 -2 9 q 14 26 41 80 q 3 133 -22 196 q -47 259 -46 303 q -46 317 -35 327 q -24 337 -7 337 l -6 337 q 10 336 20 327 q 30 318 30 303 q 30 237 78 153 q 117 231 142 270 q 167 308 190 317 q 202 321 206 309 q 211 297 199 293 q 189 289 176 274 q 164 258 148 230 q 132 203 122 182 q 111 162 94 127 q 121 86 150 60 q 180 35 200 35 q 221 35 260 97 q 277 127 297 166 q 302 178 314 172 q 325 167 320 155 z"},")":{"x_min":0,"x_max":282,"ha":282,"o":"m 193 601 q 232 501 232 355 q 232 210 195 107 q 153 -10 80 -12 q 79 -12 77 -12 q 72 -12 68 -8 q 64 -5 64 0 q 64 6 68 10 q 72 13 77 13 q 111 13 136 111 q 160 209 160 348 q 160 493 134 591 q 106 693 63 693 q 57 693 54 697 q 50 701 50 706 q 50 711 54 715 q 57 719 63 719 q 147 719 193 601 z"},"&":{"x_min":0,"x_max":493,"ha":493,"o":"m 326 333 q 380 333 412 287 q 443 241 443 182 q 443 141 430 106 q 418 75 397 51 q 343 -11 246 -12 q 246 -12 245 -12 q 244 -12 244 -12 q 134 -12 83 76 q 48 134 50 214 q 52 293 88 357 q 119 410 164 433 q 122 449 100 486 q 81 519 82 561 q 83 603 104 640 q 125 676 160 696 q 196 717 239 717 q 280 717 308 696 q 336 676 347 639 q 359 596 345 552 q 334 514 310 499 q 299 492 292 503 q 286 514 296 521 q 313 531 321 560 q 335 615 310 647 q 290 673 246 673 q 190 673 164 626 q 146 596 146 556 q 146 517 164 487 q 184 452 219 448 q 224 448 229 448 l 230 448 q 235 448 238 444 q 242 441 242 435 q 242 434 242 434 q 242 429 238 426 q 235 422 230 422 q 229 422 229 422 l 228 422 l 227 422 q 223 422 220 422 q 178 415 146 358 q 113 300 113 216 q 113 134 150 82 q 190 24 266 24 q 363 24 406 115 q 406 117 407 118 q 418 147 417 181 q 417 231 392 270 q 368 308 326 308 q 295 308 273 280 q 253 254 253 219 q 253 211 255 203 q 257 195 262 183 q 267 171 280 164 q 294 157 313 157 q 315 157 316 156 q 328 174 327 179 q 324 192 336 195 q 349 198 352 186 q 356 169 328 127 q 314 105 312 99 q 309 90 300 90 q 298 90 296 90 q 284 94 287 106 q 290 115 301 132 q 267 136 247 160 q 227 183 227 219 q 227 262 253 296 q 282 333 326 333 z"},"_":{"x_min":0,"x_max":703,"ha":703,"o":"m 625 376 q 640 373 647 364 q 654 354 653 342 q 652 330 644 322 q 635 314 624 314 l 623 314 q 583 315 279 318 q 96 320 83 321 q 68 321 60 329 q 51 337 50 347 q 50 357 58 366 q 65 374 80 376 q 167 385 378 384 q 588 382 625 376 z"},"v":{"x_min":0,"x_max":370,"ha":370,"o":"m 397 174 q 402 174 406 170 q 410 166 410 161 q 410 156 406 152 q 402 148 397 148 q 327 148 274 177 q 263 131 244 90 q 197 -13 139 -13 q 110 -13 85 13 q 43 56 18 166 q -2 253 0 303 q 1 323 19 332 q 40 343 58 331 q 73 321 72 302 q 70 270 88 180 q 106 90 139 55 q 152 41 166 41 q 186 41 209 83 q 232 125 247 175 q 249 183 251 192 q 241 198 233 206 q 208 229 194 258 q 179 286 179 313 q 179 337 192 352 q 204 367 225 367 q 257 367 273 336 q 286 311 286 269 q 286 239 279 203 q 329 174 397 174 z m 256 220 q 260 246 260 269 q 260 305 250 324 q 242 341 225 341 q 205 341 205 313 q 205 294 216 270 q 227 246 250 225 q 253 223 256 220 z"},"O":{"x_min":0,"x_max":543,"ha":543,"o":"m 461 660 q 529 545 529 383 q 529 221 461 106 q 457 100 454 95 q 454 94 454 94 q 385 -13 289 -13 q 240 -13 196 18 q 152 48 118 106 q 50 221 50 383 q 50 545 118 660 q 152 718 196 748 q 240 779 289 779 q 373 779 437 695 q 450 679 461 660 z m 434 110 q 503 221 503 383 q 503 469 482 544 q 461 620 423 671 q 421 673 420 675 q 412 686 400 698 q 389 710 364 724 q 338 737 310 737 q 229 737 176 637 q 123 537 123 383 q 123 228 180 124 q 235 24 315 24 q 338 24 365 42 q 392 61 406 77 q 421 93 433 109 q 433 110 434 110 z"},"(":{"x_min":0,"x_max":282,"ha":282,"o":"m 220 719 q 225 719 228 715 q 232 711 232 706 q 232 701 228 697 q 225 693 220 693 q 176 693 149 591 q 122 492 122 348 q 122 209 146 111 q 171 13 206 13 q 211 13 214 10 q 218 6 218 0 q 218 -5 214 -8 q 211 -12 206 -12 q 204 -12 203 -12 q 130 -10 87 107 q 50 210 50 355 q 50 501 89 601 q 135 719 220 719 z"},"C":{"x_min":0,"x_max":548,"ha":548,"o":"m 578 155 q 559 117 528 79 q 528 78 528 78 q 520 68 512 59 q 445 -13 374 -13 q 269 -13 212 87 q 161 176 161 313 q 161 396 181 478 q 153 484 129 497 q 50 541 50 641 q 50 647 54 650 q 57 654 62 654 q 68 654 72 650 q 76 647 76 641 q 76 557 142 520 q 161 509 188 503 q 208 571 239 626 q 328 780 472 780 q 541 780 556 728 q 561 708 556 683 q 548 641 512 596 q 476 551 423 518 q 349 472 253 470 q 237 399 237 324 q 237 197 279 114 q 323 28 398 28 q 422 28 446 41 q 470 54 481 65 q 492 76 508 94 l 508 94 q 538 131 555 166 q 560 177 572 172 q 583 166 578 155 z m 490 739 q 407 739 347 672 q 287 604 259 496 q 342 499 409 540 q 460 571 492 612 q 524 652 531 688 q 531 688 531 688 q 536 714 525 727 q 515 739 490 739 z"},"W":{"x_min":0,"x_max":1017,"ha":1017,"o":"m 1020 744 q 999 487 971 318 q 948 173 919 92 q 902 45 883 19 q 883 19 882 18 q 843 -33 801 -33 q 741 -33 697 73 q 663 155 638 299 q 619 409 609 539 q 594 417 575 317 q 549 174 518 93 q 499 45 478 19 q 438 -33 394 -33 q 370 -33 350 -17 q 331 -1 317 36 q 303 72 294 106 q 285 139 278 202 q 271 264 268 302 q 264 339 259 413 q 246 580 235 641 q 219 731 195 731 q 175 731 154 705 q 132 679 118 650 q 116 645 113 639 q 113 639 112 636 q 112 635 111 634 q 95 596 85 559 q 75 522 76 512 q 76 507 72 503 q 69 499 64 498 q 58 498 54 502 q 50 505 50 510 q 49 523 60 564 q 71 605 89 646 q 117 712 149 747 q 179 780 212 780 q 273 780 300 651 q 315 579 329 388 q 344 196 359 124 q 383 13 425 13 q 441 13 458 34 q 476 58 494 103 q 524 181 550 322 q 582 495 600 700 q 600 714 610 723 q 620 732 635 732 q 650 732 660 722 q 671 713 671 699 q 671 638 682 523 q 692 408 710 302 q 723 228 738 172 q 754 117 766 88 q 779 58 793 40 q 807 22 816 18 q 824 13 832 13 q 839 13 846 18 q 854 23 866 42 q 879 61 892 92 q 904 124 918 184 q 933 243 946 322 q 974 490 994 746 q 995 757 996 768 q 996 773 1000 776 q 1004 780 1010 780 q 1015 779 1018 775 q 1022 771 1022 766 q 1021 760 1020 744 z"},"A":{"x_min":0,"x_max":757,"ha":757,"o":"m 786 156 q 784 150 780 139 q 768 108 759 89 q 759 88 759 87 l 758 86 q 758 85 757 83 q 756 81 755 80 q 755 79 754 78 q 754 77 754 77 q 713 -13 670 -13 q 648 -13 630 6 q 573 64 558 328 q 466 326 396 319 q 361 224 329 161 q 243 -13 147 -13 q 87 -13 61 36 q 49 59 50 86 q 51 112 66 133 q 99 182 175 174 q 180 173 184 169 q 187 165 186 160 q 186 154 182 151 q 177 148 172 148 q 112 155 87 119 q 64 85 84 48 q 102 13 147 13 q 179 13 210 37 q 241 61 269 106 q 297 151 320 201 q 343 251 367 316 q 243 300 210 268 q 200 259 200 248 q 200 243 196 239 q 193 235 188 235 q 182 235 178 239 q 175 243 175 248 q 175 269 192 286 q 233 327 377 343 q 396 397 431 502 q 481 655 508 716 q 536 776 566 779 q 572 781 587 781 q 598 781 606 780 q 624 776 624 763 q 624 760 623 746 q 618 518 626 354 q 650 354 672 354 q 684 354 685 354 q 691 354 694 350 q 698 346 698 341 q 698 336 694 332 q 691 328 685 328 q 684 328 672 328 q 650 329 627 329 q 641 87 682 44 q 688 38 694 38 q 708 38 734 95 q 734 96 735 97 q 743 116 756 149 q 762 164 763 166 q 767 178 779 173 q 791 168 786 156 z m 405 346 q 472 352 557 354 q 549 512 556 738 q 556 743 556 745 q 541 728 522 683 q 501 634 455 494 q 423 397 405 346 z"},"f":{"x_min":0,"x_max":202,"ha":202,"o":"m 206 169 q 215 179 224 170 q 234 162 226 153 q 201 124 176 106 q 151 88 115 80 q 129 68 140 50 q 163 10 163 -50 q 163 -53 163 -56 l 163 -57 q 163 -104 148 -135 q 126 -194 85 -194 q 27 -194 10 -105 q 1 -59 1 56 l 1 105 q 1 236 2 298 q 2 361 6 437 q 11 513 20 561 q 26 593 34 618 q 43 643 58 668 q 74 694 100 708 q 127 721 162 721 q 224 721 238 664 q 248 621 227 553 q 225 544 222 536 q 210 502 192 466 q 165 413 132 372 q 99 332 69 314 q 68 268 70 174 q 70 121 70 100 q 119 102 148 119 q 178 136 206 169 z m 130 667 q 73 609 69 345 q 122 387 169 477 q 186 510 197 542 q 197 543 197 544 q 198 544 198 544 q 200 551 202 558 l 202 559 q 207 576 210 595 q 213 614 211 636 q 209 657 201 669 q 191 684 170 684 q 147 684 130 667 z m 118 37 q 100 67 70 73 l 70 62 q 70 -30 76 -73 q 86 -141 108 -141 q 119 -141 127 -121 q 137 -92 138 -57 l 138 -56 q 138 -52 138 -50 q 138 3 118 37 z"},"Q":{"x_min":0,"x_max":579,"ha":579,"o":"m 514 -8 q 519 -9 522 -13 q 526 -17 526 -22 q 525 -28 521 -31 q 517 -34 512 -34 q 489 -32 443 -27 q 370 -20 330 -16 q 289 -13 230 -12 q 172 -10 139 -18 q 106 -26 95 -44 q 92 -50 84 -50 q 81 -50 78 -48 q 67 -41 73 -30 q 98 10 202 14 q 154 44 118 106 q 50 221 50 383 q 50 545 118 660 q 152 718 196 748 q 240 779 289 779 q 373 779 437 695 q 450 679 461 660 q 529 545 529 383 q 529 221 461 106 q 457 100 454 95 q 454 94 454 94 q 415 33 364 6 q 391 4 446 -2 q 492 -6 514 -8 z m 180 124 q 235 24 315 24 q 338 24 365 42 q 392 61 406 77 q 421 93 433 109 q 433 110 434 110 q 503 221 503 383 q 503 469 482 544 q 461 620 423 671 q 421 673 420 675 q 412 686 400 698 q 389 710 364 724 q 338 737 310 737 q 229 737 176 637 q 123 537 123 383 q 123 228 180 124 z"},"w":{"x_min":0,"x_max":559,"ha":559,"o":"m 577 174 q 583 174 586 170 q 590 166 590 161 q 590 156 586 152 q 583 148 577 148 q 511 148 460 177 q 443 100 408 44 q 372 -13 330 -13 q 303 -13 280 11 q 241 53 220 165 q 219 170 218 171 q 212 135 202 105 q 193 75 180 47 q 167 19 148 3 q 128 -13 106 -13 q 81 -13 62 7 q 27 43 13 132 q -1 220 1 303 q 2 318 13 328 q 24 337 38 337 l 39 337 q 54 336 63 326 q 72 317 72 303 q 70 236 80 163 q 93 71 117 47 q 123 40 129 40 q 155 40 177 110 q 203 194 205 285 q 205 287 206 288 q 205 297 206 304 q 207 319 218 328 q 230 337 244 336 q 258 336 266 326 q 275 317 275 303 q 274 263 290 172 q 305 82 335 51 q 345 41 356 41 q 391 41 426 151 l 427 151 q 427 152 427 152 q 433 172 437 193 q 428 200 420 207 q 396 230 382 259 q 368 288 368 314 q 368 338 380 352 q 392 367 412 367 q 430 367 443 356 q 456 345 461 328 q 466 310 468 296 q 470 281 470 266 q 470 238 465 204 q 513 174 577 174 z m 442 222 q 445 246 445 266 q 445 341 412 341 q 394 341 394 314 q 394 296 404 272 q 415 247 438 226 q 439 224 442 222 z"},"E":{"x_min":0,"x_max":525,"ha":525,"o":"m 554 154 q 552 152 547 144 q 520 98 495 70 q 494 69 494 68 l 493 67 q 492 67 492 66 q 492 66 491 66 q 421 -13 336 -13 q 246 -13 191 61 q 142 128 142 222 q 142 322 198 390 q 239 439 301 457 q 278 468 262 486 q 237 514 229 554 q 171 560 126 584 q 50 623 50 688 q 50 693 54 696 q 57 700 62 700 q 68 700 72 696 q 76 693 76 688 q 76 639 138 606 q 176 587 226 580 q 226 584 226 586 q 226 659 273 717 q 324 780 401 780 q 467 780 482 731 q 486 717 485 700 q 483 673 465 644 q 447 616 418 596 q 366 560 293 553 q 296 519 313 497 q 334 468 376 468 q 381 468 385 464 q 389 460 389 455 q 389 450 385 446 q 381 442 376 442 q 374 442 371 442 q 298 440 256 376 q 214 313 214 229 q 214 145 254 89 q 297 28 371 28 q 422 28 474 84 l 475 86 q 475 86 476 87 q 499 113 525 157 q 530 164 532 168 q 539 179 550 172 q 560 165 554 154 z m 421 739 q 369 739 332 690 q 296 641 292 579 q 358 585 403 617 q 455 653 460 702 q 459 739 421 739 z"},"s":{"x_min":0,"x_max":257,"ha":257,"o":"m 276 174 q 281 174 284 170 q 288 166 288 161 q 288 156 284 152 q 281 148 276 148 q 223 148 174 122 q 205 89 204 44 q 204 7 174 -28 q 145 -62 99 -63 l 98 -64 l 98 -64 q 97 -64 96 -64 l 95 -64 q 94 -64 93 -63 l 93 -63 q 54 -56 45 -24 q 38 0 50 32 q 63 63 92 93 q 87 96 81 101 q 61 114 50 122 q 40 131 26 146 q 11 161 5 180 q -1 198 -1 221 q 0 267 33 309 q 73 361 137 361 q 185 361 205 325 q 230 282 197 226 l 196 226 q 196 225 196 224 q 195 224 194 224 q 194 223 194 222 q 193 222 193 222 q 193 222 192 222 q 191 221 191 221 q 190 221 190 220 q 189 220 188 220 q 188 220 187 220 q 186 220 186 220 q 186 220 185 220 q 184 220 184 220 q 183 220 182 220 q 182 221 181 221 q 180 221 180 221 q 180 221 180 222 q 179 222 179 222 q 178 222 178 222 q 177 223 176 224 q 176 224 176 224 q 175 225 175 226 q 175 226 174 226 q 174 227 174 228 q 174 228 174 229 q 173 230 173 230 q 173 230 173 231 q 173 232 173 232 q 173 233 173 234 q 173 235 173 235 q 173 235 174 236 q 174 237 174 237 l 174 238 q 190 275 176 296 q 169 307 150 307 q 120 307 97 284 q 74 260 74 234 q 73 217 82 202 q 91 187 100 179 q 110 171 130 157 q 146 146 153 140 q 212 174 276 174 z m 135 -16 q 144 0 145 16 q 145 50 113 77 q 88 52 76 26 q 64 1 69 -17 q 74 -33 97 -38 l 98 -38 q 122 -37 135 -16 z"},">":{"x_min":0,"x_max":568,"ha":568,"o":"m 517 350 q 523 329 501 316 q 485 307 328 202 q 127 69 98 52 q 92 48 84 48 q 67 48 56 63 q 40 86 62 104 q 92 129 225 218 q 358 308 439 349 q 426 358 412 368 q 382 389 303 444 q 101 583 74 604 q 66 610 64 621 q 63 632 70 642 q 77 652 89 656 q 101 659 116 652 q 167 623 313 523 q 459 423 506 371 q 515 362 517 350 z"},"l":{"x_min":0,"x_max":193,"ha":193,"o":"m 239 664 q 249 621 228 553 q 226 544 223 537 q 211 502 193 466 q 165 413 132 372 q 99 332 69 313 q 69 273 70 208 q 71 176 71 161 l 71 158 q 72 144 72 135 q 72 126 74 109 q 75 92 78 82 q 80 71 84 60 q 89 48 96 42 q 104 36 114 36 q 127 36 151 73 q 152 75 152 76 q 153 76 153 76 q 170 104 194 154 q 197 161 199 165 q 205 176 216 170 q 228 165 222 154 q 222 152 217 143 q 193 93 176 65 q 176 64 175 63 q 128 -13 86 -13 q 4 -13 2 161 q 0 249 2 332 q 3 416 8 484 q 14 551 30 604 q 47 657 76 686 q 110 721 163 721 q 225 721 239 664 z m 203 559 q 208 576 211 595 q 214 614 212 636 q 210 657 202 669 q 192 684 170 684 q 148 684 131 666 q 72 606 69 344 q 123 386 170 477 q 187 510 198 542 q 198 543 198 544 q 198 544 199 544 q 201 551 203 558 z"},"8":{"x_min":0,"x_max":437,"ha":437,"o":"m 385 276 q 407 232 407 182 q 407 143 393 107 q 393 106 392 105 l 392 104 q 371 51 326 18 q 282 -15 228 -15 q 155 -15 102 43 q 50 101 50 182 q 50 242 80 291 q 109 340 157 363 q 93 392 65 459 q 65 460 64 460 q 64 460 64 460 q 64 461 64 461 q 64 461 64 462 q 50 496 50 533 q 50 580 72 622 q 80 640 100 663 q 121 686 150 699 q 187 718 228 718 q 302 718 354 664 q 407 610 407 533 q 407 477 377 431 q 347 385 299 363 q 302 362 306 359 q 335 345 356 320 q 377 296 385 276 z m 88 470 q 107 430 141 406 q 175 381 211 381 q 270 381 302 422 q 335 462 335 533 q 335 602 300 644 q 264 686 205 686 q 182 686 159 676 q 159 675 159 675 q 121 655 98 617 q 76 579 76 533 q 76 500 88 470 z m 369 114 q 381 147 381 182 q 381 231 358 272 q 335 313 298 335 q 298 335 297 335 q 275 347 251 347 q 201 347 165 306 q 129 266 129 182 q 129 134 140 100 q 150 66 168 49 q 186 32 204 26 q 223 19 245 19 q 282 19 316 45 q 350 71 369 114 z"},"\\":{"x_min":0,"x_max":488,"ha":488,"o":"m 434 80 q 438 71 438 63 q 438 48 426 40 q 419 35 410 35 q 394 35 383 50 q 338 107 201 356 q 64 605 52 640 q 48 652 53 663 q 58 674 70 679 q 80 685 93 682 q 106 679 112 668 q 131 632 341 249 q 430 85 434 80 z"},"e":{"x_min":0,"x_max":249,"ha":249,"o":"m 278 155 q 241 83 202 41 q 153 -13 109 -13 q 55 -13 25 39 q 0 83 0 148 q 0 221 32 277 q 63 333 116 333 q 151 333 170 313 q 188 295 188 266 q 188 263 187 261 q 187 261 187 260 q 187 260 187 259 q 187 258 187 258 q 187 248 184 239 q 183 237 183 236 q 183 236 183 235 q 182 234 182 234 q 182 233 182 232 q 171 200 142 176 q 113 152 74 149 q 75 97 90 62 q 106 27 131 27 q 153 27 180 55 q 185 60 190 65 q 190 66 191 67 q 191 67 192 68 q 224 107 255 167 q 261 178 272 172 q 284 166 278 155 z m 136 292 q 111 292 94 258 q 78 223 75 175 q 99 179 121 193 q 143 207 154 230 q 154 232 155 234 q 160 245 162 257 q 162 261 162 264 q 162 275 157 282 q 151 292 136 292 z"},"b":{"x_min":0,"x_max":353,"ha":353,"o":"m 381 153 q 356 121 328 112 q 300 102 265 103 q 247 52 214 20 q 180 -13 135 -13 q 100 -13 91 20 q 80 57 115 93 q 125 103 138 111 q 164 128 199 131 q 209 168 209 204 q 209 245 196 268 q 182 292 155 292 q 137 292 122 279 q 108 266 100 246 q 91 227 87 215 q 83 203 81 193 q 81 192 81 192 q 74 157 72 108 q 72 99 72 82 q 73 30 73 20 q 73 5 62 -5 q 53 -13 39 -13 q 25 -13 14 -4 q 4 6 4 20 q 4 25 3 74 q 2 120 2 161 q 0 249 2 332 q 3 416 8 484 q 14 551 30 604 q 47 657 76 686 q 110 721 163 721 q 225 721 239 664 q 249 621 228 553 q 226 543 223 537 q 211 502 193 466 q 166 413 133 372 q 100 332 70 314 q 70 286 70 250 q 103 333 180 333 q 230 333 258 290 q 281 253 281 195 q 281 161 273 128 q 300 128 321 136 q 342 144 360 169 q 368 179 378 171 q 389 163 381 153 z m 132 667 q 73 607 70 345 q 123 387 170 477 q 187 510 198 542 q 198 543 198 544 q 199 544 199 544 q 199 545 199 545 q 201 551 203 558 q 208 576 211 595 q 214 614 212 636 q 210 657 202 669 q 192 684 170 684 q 149 684 132 667 z m 182 82 q 187 93 191 104 q 169 101 152 90 q 141 83 133 75 q 123 65 120 53 q 116 41 119 33 q 122 26 131 26 q 143 26 157 41 q 171 56 182 82 z"},"m":{"x_min":0,"x_max":543,"ha":543,"o":"m 573 156 q 573 154 570 147 q 559 112 548 85 q 546 79 544 75 q 543 75 543 74 q 505 -13 463 -13 q 442 -13 428 1 q 415 14 409 42 q 403 69 402 92 q 401 114 401 157 q 402 263 386 278 q 382 282 377 282 q 336 282 300 176 q 288 137 281 97 q 274 57 274 39 q 274 25 264 16 q 255 7 240 7 q 227 7 218 14 q 207 23 207 38 q 207 140 199 196 q 185 287 153 287 q 138 287 122 260 q 107 232 95 193 q 71 103 71 20 q 71 6 61 -4 q 51 -13 37 -13 q 23 -13 12 -4 q 2 5 2 20 q 2 29 2 115 q 1 271 1 310 q 1 323 11 331 q 21 339 36 339 q 51 339 61 331 q 71 323 71 310 q 71 305 71 289 q 71 273 71 248 q 71 224 71 203 q 107 333 177 333 q 203 333 223 314 q 260 276 270 167 q 273 174 276 184 q 278 190 280 197 q 325 328 402 328 q 450 328 464 262 q 472 228 472 143 q 472 83 476 63 q 479 38 486 38 q 488 38 490 40 q 493 41 502 54 q 511 66 521 88 q 521 88 522 88 q 522 88 522 89 q 534 117 546 155 q 548 162 549 164 q 554 176 566 172 q 578 168 573 156 z"},"#":{"x_min":0,"x_max":844,"ha":844,"o":"m 766 491 q 781 488 788 478 q 795 469 793 457 q 792 445 784 437 q 775 429 764 429 l 763 429 q 741 429 660 430 q 633 342 608 262 q 691 259 706 257 q 721 254 728 244 q 735 235 734 223 q 733 211 724 203 q 716 195 705 195 q 705 195 704 195 q 680 195 587 196 q 526 0 522 -12 q 518 -23 510 -29 q 502 -34 492 -34 q 489 -34 486 -34 q 474 -31 468 -22 q 462 -12 464 0 q 469 44 514 197 q 445 198 312 199 q 271 199 248 199 q 186 4 182 -11 q 178 -23 169 -29 q 161 -34 152 -34 q 148 -34 145 -34 q 134 -31 128 -22 q 122 -12 123 0 q 129 44 175 200 q 95 201 83 201 q 68 202 60 210 q 51 217 50 228 q 50 238 58 246 q 65 255 80 257 q 114 261 193 263 q 217 341 246 434 q 155 435 142 435 q 127 436 118 444 q 110 451 110 462 q 109 472 116 480 q 124 489 139 491 q 176 495 266 497 q 325 680 335 698 q 342 711 356 714 q 369 718 380 713 q 392 708 397 698 q 402 689 399 679 q 391 657 341 499 q 469 500 607 497 q 665 680 675 698 q 682 711 696 714 q 710 718 721 713 q 732 708 737 698 q 742 689 739 679 q 731 656 681 495 q 752 493 766 491 z m 534 263 q 558 344 586 431 q 523 432 372 433 q 344 433 321 433 q 300 367 268 264 q 393 266 534 263 z"},",":{"x_min":0,"x_max":196,"ha":196,"o":"m 146 -1 q 148 -21 142 -42 q 136 -64 123 -78 q 110 -93 95 -95 q 93 -95 92 -95 q 86 -95 82 -92 q 79 -88 79 -82 q 79 -77 82 -74 q 86 -70 92 -70 q 102 -68 106 -46 q 102 -46 98 -46 q 78 -46 64 -33 q 50 -20 50 -2 q 50 16 64 29 q 78 42 98 42 q 117 42 131 30 q 145 17 146 -1 z"},"n":{"x_min":0,"x_max":368,"ha":368,"o":"m 396 156 q 395 154 393 147 q 382 112 371 85 q 368 79 366 75 q 366 75 366 74 q 328 -13 286 -13 q 265 -13 251 1 q 238 14 232 42 q 225 69 224 92 q 224 114 224 157 q 224 262 209 278 q 205 282 200 282 q 157 282 110 170 q 110 170 109 169 q 92 125 80 80 q 69 34 69 18 q 69 4 59 -6 q 49 -15 34 -15 q 21 -15 10 -6 q 0 3 0 18 l 0 114 q 0 259 0 310 q 0 322 10 330 q 21 338 37 338 q 49 338 58 332 q 70 325 70 310 q 70 294 70 189 q 70 179 70 135 q 77 158 86 180 q 88 185 89 187 q 148 328 225 328 q 273 328 287 262 q 295 228 295 143 q 295 84 298 63 q 302 38 309 38 q 310 38 313 40 q 316 41 325 54 q 334 67 345 89 q 357 117 369 155 q 371 162 372 164 q 376 176 388 172 q 400 168 396 156 z"},"h":{"x_min":0,"x_max":354,"ha":354,"o":"m 384 156 q 384 154 381 147 q 367 103 353 71 q 353 70 352 68 q 351 67 349 63 q 343 49 338 42 q 308 -13 274 -13 q 253 -13 239 1 q 226 15 220 44 q 214 73 214 96 q 213 119 213 163 q 215 269 200 284 q 197 287 193 287 q 152 287 105 170 q 105 169 105 169 q 73 77 73 17 q 73 2 62 -8 q 53 -16 39 -16 q 25 -16 14 -7 q 4 2 4 17 q 4 24 3 75 q 2 115 2 161 q 0 249 2 332 q 3 416 8 484 q 14 551 30 604 q 47 657 76 686 q 110 721 163 721 q 225 721 239 664 q 249 621 228 553 q 226 544 223 537 q 211 502 193 466 q 166 413 133 372 q 100 332 70 314 q 70 280 71 220 q 71 177 71 161 q 71 159 71 148 q 76 164 81 178 q 81 179 81 179 q 84 187 87 195 q 140 333 218 333 q 240 333 255 318 q 269 304 276 274 q 283 243 284 218 q 284 194 284 148 q 283 51 294 39 q 295 38 297 38 q 307 38 319 59 q 319 59 319 60 q 322 65 326 72 q 326 73 327 75 q 342 108 357 155 q 359 162 360 164 q 365 176 377 172 q 389 168 384 156 z m 132 667 q 73 607 70 345 q 123 387 170 477 q 187 510 198 542 q 198 543 198 544 q 199 544 199 545 q 201 551 203 558 q 208 576 211 595 q 214 614 212 636 q 210 657 202 669 q 192 684 170 684 q 149 684 132 667 z"},"z":{"x_min":0,"x_max":324,"ha":324,"o":"m 342 174 q 347 174 350 170 q 354 166 354 161 q 354 156 350 152 q 347 148 342 148 q 288 148 234 101 q 209 79 185 48 q 207 33 223 9 q 258 -45 258 -130 q 258 -230 214 -310 q 166 -399 93 -399 q 61 -399 45 -368 q 32 -343 32 -300 q 32 -272 37 -238 q 37 -237 37 -237 q 37 -236 38 -236 q 57 -118 120 -5 q 132 15 144 34 q 127 46 106 47 q 104 47 102 47 q 97 47 93 50 q 89 54 89 60 q 89 65 93 68 q 97 72 102 72 q 121 72 144 124 q 168 177 168 229 q 168 259 158 276 q 148 292 127 292 q 111 292 97 286 q 83 280 74 272 q 66 264 60 254 q 53 245 51 240 q 49 236 48 233 q 47 232 47 231 q 33 196 33 161 q 33 156 29 152 q 25 148 20 148 q 14 148 10 152 q 7 156 7 161 q 7 201 23 241 q 23 241 24 242 q 26 248 30 256 q 31 257 31 258 q 70 333 142 333 q 186 333 208 305 q 227 281 227 240 q 227 193 204 142 q 182 92 149 65 q 156 63 163 60 q 248 174 342 174 z m 193 -110 q 193 -40 171 2 q 167 9 163 15 q 152 -1 143 -18 q 81 -127 63 -240 l 63 -241 q 52 -325 70 -345 q 75 -351 84 -351 q 127 -351 160 -276 q 193 -201 193 -110 z"},"B":{"x_min":0,"x_max":640,"ha":640,"o":"m 425 432 q 501 415 546 358 q 590 302 590 221 q 590 164 564 104 q 539 45 490 10 q 442 -26 380 -26 q 364 -26 346 -23 q 324 -20 301 -12 q 299 -11 297 -10 q 296 -9 296 -9 q 296 -8 295 -8 q 295 -8 295 -7 q 294 -7 294 -6 q 294 -6 294 -6 q 293 -5 293 -3 q 293 -3 293 -2 q 292 1 293 4 q 294 6 295 7 q 295 7 295 8 q 297 10 299 11 q 300 12 300 12 q 305 14 310 12 q 328 6 346 3 q 399 -4 442 26 q 481 53 503 104 q 525 156 525 220 q 525 302 471 360 q 420 414 360 414 q 354 414 350 418 q 347 422 347 427 q 347 432 350 436 q 354 440 360 440 q 387 440 408 490 q 430 540 430 593 q 430 667 400 702 q 369 737 305 737 q 238 737 198 680 q 197 679 196 678 q 195 676 195 675 q 192 672 190 669 q 189 667 189 665 q 187 663 187 662 q 185 659 182 653 q 181 653 181 652 q 181 651 180 650 q 180 650 180 650 q 155 599 155 564 q 155 559 151 555 q 147 551 142 551 q 136 551 132 555 q 129 559 129 564 q 129 604 157 661 q 157 661 158 662 q 158 662 158 663 q 158 664 159 665 q 165 677 171 687 q 231 780 332 780 q 419 780 464 719 q 499 673 499 611 q 499 538 463 480 q 445 450 420 434 q 423 433 425 432 z m 317 690 q 306 679 300 652 q 293 625 291 590 q 289 555 288 512 q 288 470 289 428 q 289 379 290 331 q 290 283 286 235 q 283 187 276 147 q 270 107 256 72 q 243 38 222 18 q 192 -13 147 -13 q 87 -13 61 36 q 50 58 50 82 q 50 83 50 83 q 51 111 66 133 q 99 182 175 174 q 180 173 184 169 q 187 165 186 160 q 186 154 182 151 q 177 148 172 148 q 112 155 87 119 q 76 103 76 83 l 76 82 q 76 56 91 40 q 106 24 131 24 q 147 24 160 31 q 173 38 182 54 q 191 71 198 86 q 204 102 208 132 q 212 161 214 182 q 217 202 218 240 q 219 278 220 300 q 220 321 220 363 q 221 538 233 603 q 256 722 332 722 q 337 722 340 718 q 344 714 344 709 q 344 704 340 700 q 337 696 332 696 q 323 696 317 690 z"},"K":{"x_min":0,"x_max":709,"ha":709,"o":"m 739 156 l 738 153 q 718 110 702 81 l 701 81 q 701 80 701 79 l 699 77 q 699 77 699 76 q 646 -13 593 -13 q 571 -13 548 0 q 526 13 503 40 q 480 68 462 94 q 444 119 421 162 q 398 204 386 228 q 374 252 354 295 q 346 311 341 320 q 312 103 238 27 q 198 -13 147 -13 q 87 -13 61 36 q 50 57 50 80 q 50 81 50 82 q 50 82 50 82 q 50 82 50 83 q 51 111 66 133 q 99 182 175 174 q 180 173 184 169 q 187 165 186 160 q 186 154 182 151 q 177 148 172 148 q 112 155 87 119 q 76 103 76 83 l 76 82 q 76 56 91 40 q 106 24 131 24 q 163 24 188 50 q 214 76 233 124 q 252 173 262 240 q 271 306 277 365 q 283 424 284 502 q 285 581 285 620 q 285 659 283 716 q 283 756 283 767 q 283 782 296 790 q 306 796 320 796 q 337 796 348 788 q 358 780 358 767 q 358 760 359 736 q 362 528 349 388 q 355 390 360 393 q 385 407 402 445 q 418 483 438 554 q 446 585 451 601 q 456 617 466 644 q 476 672 484 688 q 493 704 506 724 q 520 744 535 754 q 550 765 570 772 q 591 780 615 780 q 631 780 640 769 q 649 760 649 746 q 649 731 638 722 q 628 712 615 712 q 595 712 578 706 q 561 700 548 686 q 534 671 524 658 q 514 645 504 620 q 493 595 488 580 q 482 565 472 534 q 457 491 448 468 q 439 446 422 418 q 404 389 383 375 q 451 216 512 124 q 574 33 612 33 q 642 33 677 90 l 678 91 q 694 119 714 163 l 716 166 q 721 178 732 172 q 744 167 739 156 z"},"R":{"x_min":0,"x_max":615,"ha":615,"o":"m 645 156 q 644 153 638 140 q 622 101 610 79 q 562 -13 509 -13 q 491 -13 476 -2 q 460 8 450 20 q 440 33 429 59 q 418 85 412 102 q 407 118 397 150 q 391 173 387 185 q 383 197 376 217 q 369 237 364 248 q 358 258 350 270 q 342 281 333 286 q 324 291 314 291 q 309 291 306 294 q 302 298 302 304 q 302 309 306 312 q 309 316 314 316 q 315 316 319 317 q 359 319 390 358 q 422 396 436 447 q 451 498 451 549 q 451 637 412 687 q 374 737 305 737 q 232 737 188 675 q 184 669 180 662 q 177 658 175 653 q 174 652 173 650 q 146 599 146 564 q 146 559 142 555 q 139 551 134 551 q 128 551 124 555 q 120 559 120 564 q 120 605 150 661 q 150 662 151 662 q 151 663 151 663 l 151 664 q 151 664 152 664 q 152 665 152 665 q 154 668 155 671 q 161 680 165 687 q 228 780 333 780 q 436 780 486 696 q 522 636 522 552 q 522 442 461 367 q 430 328 389 308 q 405 296 418 270 q 432 243 439 222 q 446 201 458 161 q 468 129 473 113 q 478 97 488 74 q 497 52 507 42 q 517 33 528 33 q 553 33 584 85 q 584 86 586 88 q 587 90 588 92 q 599 113 615 150 q 620 163 622 166 q 627 178 639 172 q 651 167 645 156 z m 308 690 q 298 679 292 655 q 286 631 284 588 q 283 545 283 515 q 283 485 284 428 q 285 344 286 268 q 286 191 270 122 q 255 52 223 20 q 193 -12 148 -12 q 87 -12 61 38 q 53 53 51 70 q 50 74 50 79 q 50 80 50 82 q 50 82 50 83 q 50 84 50 84 l 50 85 q 50 113 66 135 q 99 183 174 175 q 179 174 182 170 q 186 166 186 160 q 185 155 180 152 q 176 149 171 149 q 111 156 87 120 q 76 104 76 84 q 76 57 92 41 q 107 25 132 25 q 156 25 172 42 q 189 58 199 92 q 209 127 212 170 q 215 212 216 263 q 218 314 216 363 q 215 417 216 470 q 217 522 220 565 q 224 608 236 644 q 247 679 266 699 q 289 721 321 722 q 321 722 323 722 q 328 722 332 718 q 336 714 336 709 q 336 704 332 700 q 328 696 323 696 q 314 696 308 690 z"},"T":{"x_min":0,"x_max":428,"ha":428,"o":"m 668 816 q 668 814 668 812 q 667 779 644 757 q 626 739 592 728 q 559 717 520 714 q 480 710 432 709 q 385 708 340 709 q 284 710 234 710 q 185 709 144 702 q 103 694 87 677 q 76 667 76 652 q 76 651 76 650 q 76 645 72 641 q 68 637 63 637 q 58 637 54 641 q 50 645 50 650 q 50 651 50 653 q 51 692 77 718 q 103 742 154 754 q 205 765 262 764 q 320 763 385 761 q 460 755 534 760 q 607 764 631 787 q 642 797 643 813 q 643 814 643 816 q 643 821 646 825 q 650 829 656 829 q 661 829 664 825 q 668 821 668 816 z m 402 700 q 408 700 412 696 q 415 693 415 688 q 415 682 412 678 q 408 675 402 675 q 394 675 387 668 q 377 658 371 634 q 365 611 364 570 q 362 528 362 500 q 362 471 364 415 q 364 334 364 260 q 365 186 350 119 q 335 52 304 20 q 273 -12 227 -12 q 167 -12 140 38 q 131 57 129 79 q 129 80 129 82 q 129 83 129 83 q 129 84 129 84 l 129 85 q 130 113 145 135 q 178 183 253 175 q 259 174 262 170 q 265 166 264 160 q 264 155 260 152 q 256 149 250 149 q 190 156 166 120 q 155 104 155 84 l 155 83 q 155 57 170 41 q 186 25 211 25 q 236 25 252 42 q 269 58 279 92 q 289 125 292 166 q 295 207 296 256 q 297 305 296 353 q 294 404 295 455 q 296 506 300 548 q 304 589 315 624 q 326 658 345 677 q 367 700 400 700 q 401 700 402 700 z"},"P":{"x_min":0,"x_max":418,"ha":418,"o":"m 486 693 q 522 631 522 552 q 522 446 463 370 q 404 293 320 291 q 317 291 314 291 q 309 291 306 294 q 302 298 302 304 q 302 309 306 312 q 309 316 314 316 q 316 316 320 317 q 354 319 380 342 q 407 366 422 402 q 436 438 444 476 q 451 514 451 549 q 451 632 416 682 q 378 737 305 737 q 232 737 188 675 q 184 669 180 662 q 178 658 175 653 q 174 652 174 651 q 173 650 173 650 q 146 599 146 564 q 146 559 142 555 q 139 551 134 551 q 128 551 124 555 q 120 559 120 564 q 120 605 150 662 l 151 662 q 151 663 151 663 q 151 663 151 664 q 151 664 152 664 q 152 665 152 665 q 154 668 155 671 q 161 680 165 687 q 228 780 333 780 q 436 780 486 693 z m 308 690 q 298 679 292 655 q 286 631 284 588 q 283 545 283 515 q 283 485 284 428 q 285 344 286 268 q 286 191 270 122 q 255 52 223 20 q 193 -12 148 -12 q 87 -12 61 38 q 53 53 51 70 q 50 74 50 79 q 50 80 50 82 q 50 82 50 83 q 50 84 50 84 l 50 85 q 50 113 66 135 q 99 183 174 175 q 179 174 182 170 q 186 166 186 160 q 185 155 180 152 q 176 149 171 149 q 111 156 87 120 q 76 104 76 84 l 76 83 q 76 57 92 41 q 107 25 132 25 q 156 25 172 42 q 189 58 199 92 q 209 127 212 170 q 215 212 216 263 q 218 314 216 363 q 215 417 216 470 q 217 522 220 565 q 224 608 236 644 q 247 679 266 699 q 289 721 321 722 q 321 722 323 722 q 328 722 332 718 q 336 714 336 709 q 336 704 332 700 q 328 696 323 696 q 315 696 308 690 z"},"|":{"x_min":0,"x_max":176,"ha":176,"o":"m 117 694 q 123 663 126 380 q 128 96 117 12 q 115 1 107 -6 q 99 -14 88 -14 q 87 -14 86 -14 q 75 -13 66 -4 q 58 4 57 17 q 57 27 57 92 q 56 182 55 244 q 51 658 50 693 q 50 703 58 710 q 66 718 78 720 q 93 721 104 714 q 114 707 117 694 z"},"t":{"x_min":0,"x_max":192,"ha":192,"o":"m 231 554 q 199 523 72 523 l 72 489 q 72 427 72 312 q 72 197 72 161 q 72 103 84 70 q 95 36 115 36 q 128 36 152 73 q 153 74 153 75 q 171 103 195 154 q 199 162 200 165 q 206 176 218 170 q 229 165 223 154 q 220 147 218 143 q 194 93 177 65 q 177 64 176 63 q 130 -13 87 -13 q 5 -13 3 161 q 1 355 2 525 q -127 527 -143 511 q -144 510 -144 508 q -144 502 -148 498 q -152 495 -158 495 q -163 495 -166 498 q -170 502 -170 508 q -170 520 -161 530 q -146 544 -110 548 q -73 552 2 550 q 2 557 2 572 q 2 586 2 593 q 3 673 3 709 q 3 722 12 730 q 22 739 38 739 q 53 739 62 730 q 72 722 72 709 q 72 686 72 549 q 189 549 213 572 q 219 578 219 587 q 219 592 223 596 q 227 600 232 600 q 237 600 241 596 q 245 592 245 587 q 245 567 231 554 z"},"M":{"x_min":0,"x_max":1008,"ha":1008,"o":"m 1038 156 q 1036 150 1032 139 q 1020 110 1011 89 q 1011 88 1011 87 l 1010 86 q 1009 84 1006 77 l 1005 77 q 964 -13 921 -13 q 899 -13 881 6 q 789 101 808 738 q 808 738 808 739 q 808 740 808 740 q 795 722 780 686 q 754 628 721 523 q 682 398 628 194 q 620 164 619 158 q 617 146 609 139 q 599 128 585 128 q 572 128 563 137 q 554 146 554 161 q 554 204 556 568 q 556 643 557 746 q 541 729 522 683 q 501 634 455 494 q 378 258 329 161 q 243 -13 147 -13 q 87 -13 61 36 q 49 59 50 86 q 51 112 66 133 q 99 182 175 174 q 180 173 184 169 q 187 165 186 160 q 186 154 182 151 q 177 148 172 148 q 112 155 87 119 q 64 85 84 48 q 102 13 147 13 q 165 13 183 20 q 201 28 218 44 q 235 61 250 79 q 265 97 281 126 q 297 156 310 180 q 322 203 338 242 q 353 280 363 305 q 373 330 388 372 q 402 415 410 438 q 417 460 431 502 q 481 655 508 716 q 535 776 566 779 q 572 781 587 781 q 598 781 606 780 q 624 776 624 763 q 624 756 623 658 q 621 390 620 263 q 663 424 698 536 q 729 631 753 687 q 777 743 790 760 q 804 777 817 779 q 824 781 839 781 q 850 781 857 780 q 875 776 875 763 q 875 761 875 746 q 868 448 884 264 q 899 80 934 44 q 940 38 946 38 q 960 38 985 93 q 985 93 986 95 q 995 115 1008 149 q 1013 163 1014 166 q 1019 178 1031 173 q 1043 168 1038 156 z"},"g":{"x_min":0,"x_max":372,"ha":372,"o":"m 401 156 q 379 103 348 72 q 316 42 274 20 q 273 -131 258 -225 q 243 -319 200 -362 q 165 -398 112 -398 q 81 -398 59 -365 q 35 -330 30 -276 q 26 -221 50 -150 q 76 -80 114 -44 q 151 -9 205 16 q 205 45 205 79 q 204 76 203 74 q 202 73 202 73 q 199 67 196 60 q 157 -13 102 -13 q 52 -13 24 36 q 0 77 0 139 q 0 216 35 274 q 70 333 130 333 q 174 333 202 300 q 202 302 202 305 q 202 320 213 330 q 222 338 236 338 q 250 338 260 328 q 271 319 271 305 q 271 296 272 249 q 273 200 273 163 q 274 85 274 49 q 345 88 377 166 q 382 178 394 173 q 406 168 401 156 z m 204 188 l 204 189 q 203 201 203 228 q 203 229 203 231 q 203 231 203 232 q 203 233 203 235 q 203 237 202 239 q 199 263 182 278 q 165 292 148 292 q 113 292 92 246 q 71 202 71 140 q 71 92 84 60 q 97 27 117 27 q 149 27 178 82 q 203 136 204 188 z m 144 -343 q 203 -283 205 -12 q 160 -34 128 -66 q 96 -99 74 -159 q 58 -200 56 -244 q 53 -317 81 -348 q 92 -360 105 -360 q 127 -360 144 -343 z"},"y":{"x_min":0,"x_max":378,"ha":378,"o":"m 408 156 q 386 103 354 72 q 323 42 281 20 q 281 -131 266 -225 q 250 -319 207 -362 q 172 -398 119 -398 q 88 -398 66 -365 q 42 -330 38 -276 q 33 -221 57 -150 q 83 -80 120 -44 q 158 -9 212 16 q 212 47 211 104 q 211 147 211 163 q 211 165 211 188 q 161 -13 78 -13 q 55 -13 38 5 q 22 23 12 56 q 3 90 2 136 q 1 183 2 210 q 2 238 5 280 q 6 297 6 303 q 7 323 25 332 q 46 343 65 331 q 80 321 79 302 q 78 298 78 293 q 63 83 99 46 q 103 40 109 40 q 121 40 138 66 q 155 93 171 143 q 190 203 208 301 q 208 303 208 306 q 209 308 209 309 q 210 311 211 314 q 211 315 211 315 q 211 315 211 316 q 214 324 220 330 q 229 338 243 338 q 257 338 268 328 q 278 319 278 304 q 278 299 279 250 q 280 202 280 163 q 281 84 281 49 q 352 88 384 166 q 389 178 401 173 q 413 168 408 156 z m 151 -343 q 210 -283 212 -12 q 167 -34 135 -66 q 103 -99 81 -159 q 65 -200 63 -245 q 60 -317 88 -348 q 99 -360 112 -360 q 134 -360 151 -343 z"},"@":{"x_min":0,"x_max":741,"ha":741,"o":"m 617 627 q 652 588 672 536 q 691 485 691 430 q 691 362 671 298 q 651 235 612 193 q 574 151 527 151 q 476 151 447 188 q 402 244 411 379 q 412 392 414 404 q 396 365 378 335 q 325 245 272 245 q 235 245 214 277 q 192 309 192 363 q 192 427 221 475 q 255 533 311 533 q 358 533 386 491 q 389 487 392 482 q 399 468 405 450 q 414 472 427 505 q 428 507 430 512 q 432 518 433 520 l 433 521 l 433 522 q 437 541 456 547 q 482 555 499 538 q 509 529 506 517 q 496 474 488 419 q 479 364 480 296 q 482 227 503 200 q 516 183 538 183 q 551 183 570 198 q 588 213 607 242 q 626 270 639 322 q 652 374 652 438 q 652 471 638 511 q 625 551 598 585 q 526 674 387 674 q 350 674 312 662 q 275 650 238 624 q 200 599 171 562 q 142 526 124 472 q 106 418 106 355 q 106 214 217 138 q 311 74 446 74 q 452 74 456 70 q 459 66 459 61 q 459 56 456 52 q 452 48 446 48 q 283 48 180 115 q 50 200 50 373 q 50 540 158 634 q 255 719 405 719 q 536 719 617 627 z m 357 349 q 373 377 390 414 q 389 416 388 420 q 377 459 364 478 q 350 497 336 497 q 309 497 288 449 q 267 400 267 344 q 267 314 275 296 q 281 282 290 282 q 295 282 302 285 q 308 288 324 304 q 339 321 356 349 z"},"p":{"x_min":0,"x_max":366,"ha":366,"o":"m 394 153 q 348 91 275 92 q 266 67 253 46 q 209 -26 139 -26 q 121 -26 108 -14 q 94 -2 90 18 q 87 37 93 56 q 93 57 93 57 q 96 66 101 73 q 101 74 102 74 q 118 99 150 112 q 176 122 209 121 q 219 158 219 195 q 219 240 204 266 q 189 292 160 292 q 124 292 101 245 q 93 226 87 202 q 71 138 71 1 l 71 -8 q 71 -10 71 -12 q 70 -373 70 -387 q 70 -401 60 -410 q 50 -420 35 -420 q 21 -420 11 -412 q 1 -403 1 -387 l 1 -151 q 1 38 1 310 q 1 322 12 330 q 22 338 38 338 q 50 338 59 332 q 71 325 71 310 q 71 290 71 239 q 74 247 78 255 q 78 255 78 256 l 78 257 q 113 333 186 333 q 239 333 268 288 q 292 250 292 190 q 292 154 283 117 q 337 119 374 169 q 381 179 392 172 q 402 164 394 153 z m 135 13 q 153 13 171 36 q 189 59 202 96 q 178 95 159 88 q 136 79 124 61 q 124 61 124 61 q 119 54 117 46 q 114 33 119 22 q 123 13 135 13 z"},"X":{"x_min":0,"x_max":705,"ha":705,"o":"m 735 155 q 732 150 725 137 q 691 73 669 46 q 668 45 667 45 q 659 35 648 24 q 638 14 614 0 q 591 -13 571 -13 q 539 -13 510 11 q 480 35 454 80 q 427 126 406 176 q 384 226 360 296 q 281 135 232 61 q 183 -13 148 -13 q 142 -13 138 -9 q 135 -5 135 0 q 135 5 138 9 q 142 13 148 13 q 177 13 245 132 q 284 198 349 330 q 338 361 319 418 q 303 468 294 494 q 286 520 270 564 q 255 607 244 631 q 232 655 218 681 q 205 707 192 719 q 180 731 168 731 q 146 731 128 708 q 111 684 100 656 q 86 615 80 570 q 73 526 76 514 q 80 502 68 498 q 55 495 52 508 q 48 522 52 562 q 57 601 69 642 q 69 643 69 643 q 71 652 77 667 l 77 668 q 93 714 114 741 q 144 780 182 780 q 204 780 224 768 q 245 755 264 728 q 283 700 298 672 q 314 644 332 597 q 351 550 363 515 q 375 480 394 423 q 488 615 538 698 q 588 780 623 780 q 628 780 632 776 q 636 772 636 767 q 636 762 632 758 q 628 754 623 754 q 599 754 537 646 q 498 577 407 392 q 407 391 406 390 q 406 389 406 388 q 419 349 428 324 q 436 299 449 262 q 462 225 472 201 q 482 177 496 148 q 509 119 521 100 q 533 82 546 66 q 559 49 573 41 q 587 33 601 33 q 624 33 649 62 q 670 87 703 149 q 708 160 712 167 q 718 178 730 172 q 741 166 735 155 z"},"*":{"x_min":0,"x_max":784,"ha":784,"o":"m 706 491 q 721 488 728 478 q 735 469 734 457 q 733 445 724 437 q 716 429 705 429 l 704 429 q 671 430 463 432 q 597 272 611 247 q 625 223 602 208 q 592 200 579 200 q 565 200 557 210 q 541 230 393 405 q 377 389 370 381 q 208 217 196 205 q 190 200 184 197 q 178 195 171 195 q 160 195 152 202 q 144 208 143 218 q 142 228 149 240 q 182 284 324 433 q 316 433 312 433 q 99 435 83 435 q 67 436 59 444 q 51 451 50 462 q 50 472 58 480 q 65 489 80 491 q 139 498 314 499 q 200 635 189 648 l 166 675 q 158 685 158 696 q 158 706 165 714 q 173 722 185 722 q 197 723 210 713 q 258 672 398 509 q 584 698 612 718 q 626 726 639 724 q 652 721 660 711 q 677 691 660 674 q 638 653 485 498 q 678 496 706 491 z"},"Y":{"x_min":0,"x_max":707,"ha":707,"o":"m 656 374 q 659 286 657 202 q 655 119 650 52 q 645 -15 628 -68 q 611 -122 583 -151 q 548 -186 495 -186 q 465 -186 442 -154 q 418 -119 414 -64 q 410 -9 433 62 q 437 74 449 70 q 461 65 457 53 q 442 12 439 -33 q 437 -106 464 -137 q 475 -149 488 -149 q 510 -149 527 -131 q 550 -107 564 -52 q 579 4 583 68 q 587 131 588 199 q 590 267 588 315 q 587 358 587 374 q 587 384 586 549 q 586 551 586 554 q 586 558 586 559 q 568 475 547 405 q 500 249 450 196 l 447 193 q 402 148 363 148 q 345 148 331 155 q 317 162 307 178 q 297 193 290 208 q 282 224 278 252 q 273 281 270 302 q 268 322 266 358 q 264 395 264 416 q 263 437 263 477 q 262 517 262 538 q 261 560 260 595 q 258 630 255 650 q 252 669 247 690 q 242 712 234 722 q 225 731 214 731 q 172 731 123 638 l 122 635 q 102 596 89 558 q 76 521 76 511 q 76 506 72 502 q 68 498 62 498 q 57 498 54 502 q 50 506 50 511 q 50 526 64 566 q 79 606 99 647 q 102 652 104 656 q 169 780 233 780 q 248 780 260 776 q 272 771 282 761 q 291 751 298 740 q 306 730 312 712 q 317 693 321 678 q 325 664 328 638 q 330 613 332 597 q 334 581 334 551 q 335 521 336 505 q 336 489 336 457 q 337 414 338 392 q 338 369 340 332 q 342 296 346 276 q 350 256 356 234 q 362 213 372 204 q 382 194 395 194 q 409 194 424 206 q 427 210 432 214 q 433 215 433 216 q 479 265 520 406 q 562 547 585 690 l 585 691 q 586 695 587 699 q 587 699 587 700 q 590 708 596 714 q 606 722 619 722 q 633 722 644 712 q 655 703 655 689 q 655 531 656 374 z"},"c":{"x_min":0,"x_max":250,"ha":250,"o":"m 279 155 q 240 79 199 37 q 152 -13 110 -13 q 56 -13 26 39 q 1 83 1 148 q 1 221 32 277 q 64 333 117 333 q 146 333 165 313 q 179 298 186 273 q 186 272 186 272 q 187 271 187 271 q 189 262 191 251 q 191 250 191 250 q 193 235 192 224 q 192 218 188 214 q 184 211 178 212 q 173 212 170 216 q 166 220 167 225 q 167 235 166 246 l 166 247 q 166 247 165 248 q 160 292 137 292 q 109 292 92 250 q 75 208 75 153 q 75 98 91 62 q 107 27 132 27 q 154 27 182 56 q 184 57 185 58 q 186 60 187 61 q 188 62 190 64 q 190 65 192 67 q 192 67 193 68 q 225 107 256 167 q 262 178 274 172 q 285 166 279 155 z"},"/":{"x_min":0,"x_max":377,"ha":377,"o":"m 307 713 q 319 708 324 698 q 329 689 326 679 q 315 648 182 221 q 113 1 109 -11 q 105 -23 96 -29 q 88 -34 79 -34 q 75 -34 72 -34 q 61 -31 55 -22 q 49 -12 50 0 q 59 69 152 369 q 246 669 262 698 q 269 711 282 714 q 296 718 307 713 z"},"[":{"x_min":0,"x_max":323,"ha":323,"o":"m 260 12 q 265 12 269 8 q 273 4 273 -1 q 273 -6 269 -10 q 265 -14 260 -14 l 88 -14 q 88 -14 87 -14 q 76 -13 68 -6 q 61 1 59 12 q 48 96 50 380 q 53 663 59 694 q 64 715 85 719 q 91 721 98 720 q 99 720 99 720 q 160 719 160 719 q 176 719 201 719 q 226 719 241 719 q 256 719 260 719 q 265 719 269 715 q 273 711 273 706 q 273 701 269 697 q 265 693 260 693 q 256 693 241 693 q 226 693 200 694 q 175 694 160 694 q 155 694 144 694 q 132 694 126 694 q 126 693 126 693 q 125 658 121 244 q 119 29 119 17 q 119 15 118 12 z"},"6":{"x_min":0,"x_max":437,"ha":437,"o":"m 385 316 q 407 267 407 210 q 407 165 393 124 q 393 124 393 123 q 392 122 392 122 q 392 121 392 120 q 371 60 326 22 q 282 -15 228 -15 q 155 -15 102 51 q 50 117 50 210 q 50 267 71 316 q 71 317 72 318 q 100 392 169 540 q 238 687 256 712 q 264 724 278 726 q 293 728 304 721 q 315 715 319 705 q 323 695 319 685 q 314 674 287 624 q 221 501 187 429 q 208 435 228 435 q 269 435 306 413 q 336 397 356 368 q 377 340 385 318 q 385 317 385 317 z m 368 131 q 381 169 381 210 q 381 262 362 308 q 361 308 361 309 q 338 361 298 388 q 275 402 251 402 q 198 402 166 360 q 135 318 130 241 q 129 226 129 210 q 129 124 158 73 q 188 20 245 20 q 282 20 316 50 q 350 81 368 131 z"},"r":{"x_min":0,"x_max":292,"ha":292,"o":"m 321 156 q 320 154 318 147 q 304 103 290 71 q 289 70 289 68 q 288 67 286 63 q 280 49 275 42 q 245 -13 211 -13 q 192 -13 177 2 q 151 30 144 102 q 138 173 142 283 q 142 296 142 305 q 95 296 59 300 q 54 240 33 160 l 32 158 q 30 148 20 148 q 18 148 17 149 q 4 152 8 164 l 8 167 q 29 246 33 305 q -4 314 -24 339 q -49 371 -34 403 q -23 426 1 426 q 26 426 41 407 q 52 392 57 367 q 58 360 59 353 l 59 352 q 59 351 59 350 q 60 340 60 329 q 101 321 157 335 q 164 338 173 339 q 175 339 178 339 q 178 339 179 339 q 193 339 202 333 q 215 325 215 309 q 215 305 214 280 q 206 66 232 39 q 233 38 234 38 q 244 38 256 60 q 260 67 263 74 q 263 74 264 75 q 279 107 294 155 q 296 162 297 164 q 301 176 313 172 q 325 168 321 156 z"},"2":{"x_min":0,"x_max":498,"ha":498,"o":"m 461 49 q 473 43 467 32 q 461 21 450 26 q 416 43 307 35 q 305 35 303 35 q 247 30 143 6 q 90 -7 78 -7 q 69 -7 63 -3 q 58 2 58 9 q 59 31 79 72 q 99 112 120 144 q 140 177 183 242 q 207 278 220 298 q 233 317 256 353 q 278 389 290 411 q 303 433 320 464 q 337 496 344 518 q 352 540 358 564 q 365 589 364 608 q 363 626 355 640 q 332 682 242 682 q 182 682 130 638 q 78 593 76 530 q 76 530 76 529 q 75 528 75 528 q 75 527 75 527 q 75 526 74 526 q 74 525 74 525 q 73 522 71 520 q 70 520 70 520 q 69 519 68 519 q 65 518 63 518 l 62 518 q 62 518 61 518 q 60 518 60 518 q 59 518 58 518 q 58 518 58 518 q 57 519 57 519 q 56 519 56 520 q 55 520 55 520 q 54 521 54 521 q 50 525 50 531 q 50 548 56 570 q 61 591 76 618 q 90 645 112 666 q 135 688 174 703 q 213 718 262 718 q 385 718 419 652 q 429 630 431 604 q 433 577 424 544 q 415 511 404 481 q 393 451 370 410 q 348 370 331 342 q 314 313 284 270 q 255 227 239 204 q 223 182 194 141 q 136 62 122 38 q 236 55 300 60 q 302 60 305 60 q 306 60 306 60 q 422 69 461 49 z"},"{":{"x_min":0,"x_max":264,"ha":264,"o":"m 201 17 q 207 17 210 14 q 214 10 214 4 q 214 -1 210 -4 q 207 -8 201 -8 q 201 -8 199 -8 q 165 -8 144 14 q 127 31 119 63 q 111 95 110 120 q 109 145 110 192 q 110 231 110 252 q 109 272 104 298 q 99 323 89 333 q 80 341 67 343 q 65 342 63 342 q 51 342 50 354 q 50 355 50 355 q 50 356 50 357 q 51 368 63 368 q 65 368 67 368 q 80 369 89 378 q 99 388 104 413 q 109 438 110 458 q 110 479 110 518 q 109 565 110 590 q 111 615 119 648 q 127 680 144 697 q 165 718 199 719 q 201 719 201 719 q 207 719 210 715 q 214 711 214 706 q 214 701 210 697 q 207 693 201 693 q 195 693 192 690 q 178 675 179 577 q 181 549 180 519 q 179 489 176 462 q 173 436 164 412 q 154 387 138 371 q 129 362 118 355 q 129 349 138 340 q 154 324 164 300 q 173 275 176 248 q 179 222 180 192 q 181 162 179 134 q 178 35 192 21 q 195 17 201 17 z"},"9":{"x_min":0,"x_max":437,"ha":437,"o":"m 228 727 q 302 727 354 661 q 407 595 407 502 q 407 445 386 396 q 385 394 385 393 q 357 320 288 172 q 218 24 201 0 q 191 -15 173 -15 q 162 -15 152 -10 q 141 -3 137 7 q 133 17 138 26 q 144 40 177 106 q 235 225 261 280 q 245 276 228 276 q 187 276 151 299 q 121 315 100 343 q 80 371 71 394 q 71 395 71 395 q 50 445 50 502 q 50 546 63 587 q 64 588 64 589 q 64 590 64 590 q 65 591 65 591 q 86 652 130 690 q 174 727 228 727 z m 313 395 q 335 445 335 502 q 335 523 333 544 q 331 565 324 593 q 316 621 304 642 q 291 662 267 677 q 243 692 211 692 q 175 692 141 662 q 107 631 88 581 q 76 543 76 502 q 76 449 95 404 q 118 351 159 324 l 159 323 q 181 310 205 310 q 276 310 313 395 z"}," ":{"x_min":0,"x_max":245,"ha":245,"o":""},"I":{"x_min":0,"x_max":340,"ha":340,"o":"m 332 781 q 337 781 340 777 q 344 773 344 768 q 344 763 340 759 q 337 755 332 755 q 324 755 318 749 q 307 738 300 709 q 293 680 291 642 q 289 603 288 556 q 288 509 289 463 q 289 409 290 356 q 290 303 286 250 q 282 198 276 154 q 269 110 254 74 q 240 37 219 16 q 190 -14 147 -14 q 87 -14 61 35 q 50 56 50 80 l 50 81 q 51 109 66 132 q 99 181 175 172 q 180 171 184 167 q 187 163 186 158 q 186 153 182 150 q 177 146 172 147 q 112 153 87 117 q 76 101 76 81 l 76 80 q 76 54 91 38 q 106 22 131 22 q 152 22 168 36 q 184 49 193 80 q 202 110 208 138 q 214 165 216 217 q 219 269 220 300 q 220 331 220 392 q 221 581 233 653 q 256 781 332 781 z"},"H":{"x_min":0,"x_max":771,"ha":771,"o":"m 801 156 q 800 153 794 139 q 782 109 773 89 q 773 88 772 87 l 772 86 q 770 81 768 77 q 767 75 766 74 q 724 -13 682 -13 q 660 -13 642 6 q 581 71 581 394 q 456 393 361 385 q 340 383 321 381 q 300 100 221 21 q 188 -13 145 -13 q 86 -13 61 35 q 50 57 50 82 l 50 83 q 50 83 50 83 q 51 111 66 132 q 100 182 176 174 q 182 173 185 169 q 188 165 188 160 q 187 154 183 151 q 179 148 174 148 q 113 155 87 118 q 76 102 76 83 l 76 82 q 75 55 91 39 q 106 24 129 24 q 152 24 170 43 q 234 108 253 371 q 127 349 126 313 q 126 308 122 304 q 119 300 114 300 l 113 300 q 108 300 104 304 q 101 308 101 313 q 102 372 255 398 q 263 527 260 725 q 259 757 259 767 q 259 781 271 789 q 280 795 293 795 q 308 795 318 787 q 328 779 328 767 q 328 748 329 715 q 330 522 323 407 q 340 408 359 410 q 455 418 581 419 q 582 553 593 730 q 595 762 595 767 q 595 778 604 784 q 614 791 628 790 q 643 790 652 782 q 662 775 662 763 q 662 760 661 739 q 650 557 650 419 q 664 419 676 419 q 688 419 689 419 q 695 419 698 415 q 702 411 702 406 q 702 401 698 397 q 695 393 689 393 q 688 393 676 393 q 664 394 650 394 q 650 92 695 44 q 701 38 707 38 q 721 38 748 95 q 749 97 749 97 q 758 116 771 149 q 776 161 778 166 q 783 178 794 173 q 806 168 801 156 z"},"4":{"x_min":0,"x_max":421,"ha":421,"o":"m 353 715 q 367 715 379 707 q 391 699 391 686 l 391 1 q 391 -12 380 -22 q 370 -31 355 -31 q 342 -31 333 -24 q 321 -15 321 0 l 321 308 q 310 308 261 306 q 162 304 119 304 q 110 304 102 304 q 101 304 101 304 q 61 304 54 311 q 50 315 50 321 q 50 330 131 506 q 204 662 226 708 q 233 722 250 723 q 261 723 271 718 q 281 714 286 707 q 291 698 286 689 q 283 683 203 506 q 134 356 122 329 q 166 329 260 332 q 311 333 321 333 l 321 686 q 321 700 332 709 q 340 715 353 715 z"},"~":{"x_min":0,"x_max":761,"ha":761,"o":"m 700 299 q 710 287 712 270 q 713 254 708 247 q 702 237 693 238 q 683 238 678 250 q 674 261 662 267 q 651 273 629 274 q 607 274 588 272 q 569 271 534 264 q 500 258 480 254 q 459 249 419 240 q 248 200 180 200 q 83 200 57 256 q 50 272 50 291 q 50 303 54 307 q 60 314 68 312 q 77 310 80 294 q 83 276 97 267 q 113 257 140 255 q 167 253 210 260 q 253 267 283 274 q 313 280 369 294 q 417 306 442 312 q 467 317 508 325 q 549 333 572 334 q 596 335 624 334 q 652 333 670 324 q 689 315 700 299 z"},"D":{"x_min":0,"x_max":595,"ha":595,"o":"m 505 664 q 572 557 572 410 q 572 242 502 122 q 426 -11 299 -13 q 298 -13 296 -13 q 290 -13 286 -9 q 283 -5 283 0 q 283 5 286 9 q 290 13 296 13 q 297 13 300 13 q 389 16 449 147 q 474 201 488 268 q 503 336 503 397 q 503 565 444 654 q 390 737 296 737 q 230 737 189 680 q 186 676 185 675 q 182 671 179 665 q 179 665 177 661 q 175 658 173 653 q 172 651 171 650 q 145 599 145 564 q 145 559 142 555 q 138 551 132 551 q 127 551 124 555 q 120 559 120 564 q 120 605 148 662 q 149 662 149 663 q 149 664 150 665 q 150 666 151 668 q 152 669 152 669 q 153 671 153 671 q 158 680 162 687 q 222 780 322 780 q 376 780 423 750 q 470 720 505 664 z m 284 424 q 284 338 284 260 q 285 183 270 112 q 254 42 222 9 q 191 -22 147 -22 q 87 -22 61 27 q 50 48 50 73 q 50 74 50 74 q 51 102 66 124 q 99 173 175 165 q 180 164 184 160 q 187 156 186 150 q 186 145 182 142 q 177 139 172 139 q 112 146 87 110 q 76 94 76 73 q 76 47 91 31 q 106 15 131 15 q 155 15 171 31 q 188 48 198 83 q 208 118 212 161 q 215 204 216 256 q 217 308 215 358 q 214 413 215 466 q 216 519 220 563 q 224 607 236 643 q 247 679 266 699 q 288 721 320 722 q 321 722 322 722 q 328 722 332 718 q 335 714 335 709 q 335 704 332 700 q 328 696 322 696 q 314 696 308 690 q 297 679 291 654 q 285 630 284 586 q 282 543 282 512 q 282 482 284 424 z"},"^":{"x_min":0,"x_max":618,"ha":618,"o":"m 565 316 q 570 304 566 292 q 562 279 552 273 q 546 269 538 269 q 525 269 516 281 q 496 308 424 434 q 352 559 317 637 q 311 627 303 615 q 284 584 238 507 q 117 309 100 283 q 92 272 80 272 q 73 272 67 276 q 56 283 52 295 q 48 307 54 323 q 79 373 166 516 q 252 659 297 706 q 306 716 317 717 q 336 724 348 701 q 353 691 382 640 q 403 602 443 532 q 550 343 565 316 z"},"0":{"x_min":0,"x_max":547,"ha":547,"o":"m 488 529 q 517 447 517 352 q 517 277 499 210 q 482 145 450 95 q 417 42 374 14 q 331 -15 284 -15 q 236 -15 193 14 q 150 42 117 95 q 50 202 50 352 q 50 502 117 609 q 150 662 193 690 q 236 719 283 719 q 342 719 393 677 q 428 650 452 607 q 477 564 488 529 z m 474 218 q 491 282 491 352 q 491 441 465 518 q 464 519 464 520 q 463 522 463 523 q 432 610 378 656 q 378 656 377 657 q 347 680 314 680 q 233 680 180 588 q 127 496 127 355 q 127 208 176 117 q 225 26 306 26 q 356 26 402 78 q 448 131 474 217 q 474 217 474 218 z"},"F":{"x_min":0,"x_max":348,"ha":348,"o":"m 369 457 q 374 457 378 453 q 381 449 381 444 q 381 438 378 434 q 374 431 369 431 l 289 431 q 289 430 289 429 q 289 428 289 428 q 289 379 290 331 q 290 283 286 235 q 283 187 276 147 q 270 107 256 72 q 243 38 222 18 q 192 -13 147 -13 q 87 -13 61 36 q 53 51 51 69 q 51 72 50 73 q 50 75 50 78 q 50 79 50 80 q 50 81 50 82 q 50 82 50 82 q 50 83 50 84 q 51 111 66 133 q 99 182 175 174 q 180 173 184 169 q 187 165 186 160 q 186 154 182 151 q 177 148 172 148 q 112 155 87 119 q 76 103 76 83 l 76 82 q 76 56 91 40 q 106 24 131 24 q 147 24 160 31 q 173 38 182 54 q 191 71 198 86 q 204 102 208 132 q 212 161 214 182 q 217 203 218 240 q 219 278 220 300 q 220 321 220 363 q 220 409 221 431 l 146 431 q 140 431 136 434 q 133 438 133 444 q 133 449 136 453 q 140 457 146 457 l 221 457 q 223 550 233 603 q 256 722 332 722 q 337 722 340 718 q 344 714 344 709 q 344 704 340 700 q 337 696 332 696 q 323 696 317 690 q 298 671 293 613 q 288 555 289 457 z m 616 803 q 616 801 616 801 q 615 779 600 764 q 583 748 546 740 q 509 733 476 732 q 444 731 380 732 q 342 733 302 732 q 261 731 226 728 q 192 725 162 716 q 133 706 117 691 q 99 673 98 645 q 97 643 97 641 q 97 636 94 632 q 90 629 84 629 q 79 629 76 632 q 72 636 72 641 q 72 698 107 732 q 136 759 188 771 q 241 783 296 782 q 352 780 412 777 q 466 773 518 774 q 571 776 585 790 q 590 794 590 801 q 590 803 590 803 q 590 808 594 812 q 598 816 603 816 q 608 816 612 812 q 616 808 616 803 z"},"`":{"x_min":0,"x_max":204,"ha":204,"o":"m 122 721 q 133 713 144 668 q 156 624 154 605 q 152 591 143 587 q 139 585 136 585 q 124 585 92 627 q 73 652 52 681 q 49 686 50 692 q 52 698 58 700 q 65 703 81 711 q 101 720 108 723 q 115 726 122 721 z"},"k":{"x_min":0,"x_max":313,"ha":313,"o":"m 343 156 l 342 154 q 322 101 303 67 q 303 66 303 65 q 302 65 302 64 q 302 64 302 63 l 301 63 q 260 -13 217 -13 q 151 -13 92 129 q 73 60 73 20 q 73 6 64 -5 q 54 -16 38 -16 q 22 -16 13 -5 q 4 6 4 20 q 4 25 3 74 q 2 122 2 161 q 0 249 2 332 q 3 416 8 484 q 14 551 30 604 q 47 657 76 686 q 110 721 163 721 q 225 721 239 664 q 249 621 228 553 q 226 544 223 537 q 211 502 193 466 q 166 413 133 372 q 100 332 70 314 q 70 280 71 220 q 71 177 71 161 q 71 159 71 150 q 79 175 87 197 q 90 203 93 211 l 93 211 q 145 333 218 333 q 242 333 256 320 q 269 307 269 285 q 269 239 221 196 q 189 167 147 155 q 168 109 194 72 q 219 34 235 34 q 254 34 279 75 q 298 110 318 163 l 319 165 q 323 177 335 172 q 347 168 343 156 z m 132 667 q 73 607 70 345 q 123 387 170 477 q 187 510 198 542 q 198 543 198 544 l 199 545 q 201 551 203 558 q 208 576 211 595 q 214 614 212 636 q 210 657 202 669 q 192 684 170 684 q 149 684 132 667 z m 116 200 q 111 189 107 176 q 139 185 174 224 q 208 263 208 286 q 208 289 207 290 q 205 292 200 292 q 177 292 155 266 q 133 239 117 201 q 117 201 116 200 q 116 200 116 200 z"},"u":{"x_min":0,"x_max":359,"ha":359,"o":"m 389 157 q 389 156 388 154 q 388 153 388 152 q 336 -13 278 -13 q 257 -13 241 4 q 207 41 205 163 q 201 147 196 133 q 196 132 196 131 l 196 130 q 193 124 192 121 q 147 -13 78 -13 q 55 -13 38 5 q 22 23 12 56 q 3 90 2 136 q 1 183 2 210 q 2 238 5 280 q 6 298 6 303 q 7 323 25 332 q 46 343 65 331 q 80 321 79 302 q 79 301 78 293 q 63 83 99 46 q 104 40 109 40 q 121 40 138 64 q 154 89 171 139 l 172 139 l 172 140 q 190 197 209 296 l 210 305 q 211 320 224 328 q 236 337 250 336 q 265 336 274 326 q 283 317 282 302 q 282 300 281 285 q 266 72 296 41 q 298 38 301 38 q 314 38 331 75 q 334 80 334 80 q 349 113 363 160 q 365 164 365 165 q 369 177 381 173 q 393 169 389 157 z"},"]":{"x_min":0,"x_max":323,"ha":323,"o":"m 263 694 q 270 663 272 380 q 275 96 264 12 q 263 6 260 2 q 260 0 260 -1 q 260 -6 256 -10 q 253 -14 247 -14 l 75 -14 q 70 -14 66 -10 q 63 -6 63 -1 q 63 4 66 8 q 70 12 75 12 l 205 12 q 204 15 204 17 q 204 27 203 92 q 202 182 202 244 q 197 658 197 693 q 197 693 197 694 q 173 694 163 694 q 147 694 122 694 q 97 693 82 693 q 67 693 63 693 q 57 693 54 697 q 50 701 50 706 q 50 711 54 715 q 57 719 63 719 q 67 719 82 719 q 97 719 122 719 q 147 719 163 719 q 167 719 223 720 q 224 720 224 720 q 225 720 225 720 q 231 721 237 719 q 259 715 263 694 z"},"U":{"x_min":0,"x_max":838,"ha":838,"o":"m 868 156 q 866 151 862 139 q 850 110 841 89 q 841 88 841 87 l 840 86 q 839 84 836 77 q 795 -13 752 -13 q 730 -13 712 6 q 629 90 635 604 q 608 465 579 350 q 538 193 499 103 q 474 47 450 19 q 449 17 447 15 q 406 -33 363 -33 q 339 -33 322 -18 q 305 -4 294 30 q 284 65 278 96 q 272 128 268 188 q 265 248 264 285 q 264 322 263 395 q 261 571 253 635 q 242 731 214 731 q 172 731 123 638 l 122 635 l 121 635 q 102 596 89 558 q 76 521 76 511 q 76 506 72 502 q 68 498 62 498 q 57 498 54 502 q 50 506 50 511 q 50 526 64 566 q 79 606 99 647 q 101 650 104 656 q 169 780 233 780 q 257 780 275 766 q 293 751 304 717 q 314 683 321 652 q 328 622 331 563 q 334 504 335 468 q 336 432 336 361 q 338 179 347 113 q 361 13 395 13 q 410 13 427 32 q 451 58 475 114 q 514 201 554 357 q 604 551 639 768 q 641 787 670 787 q 686 787 696 780 q 706 774 706 763 q 706 761 705 746 q 698 448 714 264 q 729 80 764 44 q 770 38 776 38 q 790 38 815 93 q 816 95 816 95 q 825 115 838 149 q 843 162 845 166 q 849 178 861 173 q 873 168 868 156 z"},"o":{"x_min":0,"x_max":312,"ha":312,"o":"m 338 150 q 323 135 294 118 q 264 102 232 94 q 222 60 204 34 q 167 -19 117 -19 q 74 -19 42 16 q -8 72 3 180 q 5 197 18 206 q 30 216 44 215 q 47 215 49 214 q 46 235 48 254 q 51 289 72 310 q 94 330 127 330 q 164 330 194 299 q 218 275 230 236 q 243 198 241 155 q 241 138 238 122 q 290 138 320 168 q 330 177 338 168 q 347 159 338 150 z m 141 25 q 177 25 203 89 q 178 86 156 91 q 108 101 77 147 q 78 68 106 40 q 120 25 141 25 z m 216 156 q 218 237 176 281 q 154 304 127 304 q 79 304 73 251 q 68 203 96 164 q 124 124 161 116 q 184 111 211 115 q 215 135 216 156 z"},"N":{"x_min":0,"x_max":811,"ha":811,"o":"m 841 156 q 839 152 834 139 q 820 105 811 87 q 765 -13 718 -13 q 694 -13 674 7 q 578 107 598 738 q 598 740 598 745 q 583 728 562 685 q 541 639 490 503 q 463 432 448 393 q 433 354 404 288 q 376 222 354 182 q 333 141 304 98 q 274 55 245 30 q 244 29 243 28 q 203 -13 147 -13 q 87 -13 61 36 q 50 57 50 80 q 50 81 50 82 q 50 82 50 83 q 51 111 66 133 q 99 182 175 174 q 180 173 184 169 q 187 165 186 160 q 186 154 182 151 q 177 148 172 148 q 112 155 87 119 q 76 103 76 83 l 76 82 q 76 56 91 40 q 106 24 131 24 q 166 24 192 50 q 222 80 240 146 q 258 212 263 291 q 268 370 270 462 q 271 553 268 635 q 266 724 266 767 q 266 782 280 790 q 290 796 303 796 q 320 796 331 788 q 342 780 342 767 q 342 736 343 671 q 343 577 343 489 q 343 401 334 308 q 325 214 306 149 q 335 196 366 266 q 398 337 416 384 q 435 431 466 512 q 521 659 550 718 q 579 776 608 779 q 614 781 630 781 q 642 781 650 780 q 668 776 668 763 q 668 760 668 746 q 662 581 666 460 q 671 339 677 264 q 683 189 694 141 q 705 93 713 74 q 721 54 729 45 q 736 38 743 38 q 759 38 786 93 q 786 94 787 95 q 796 114 810 149 q 815 161 817 166 q 822 178 834 173 q 846 168 841 156 z"},"+":{"x_min":0,"x_max":703,"ha":703,"o":"m 625 376 q 640 373 647 364 q 654 354 653 342 q 652 330 644 322 q 635 314 624 314 l 623 314 q 586 315 385 317 q 385 288 385 276 q 383 114 382 99 q 382 85 374 77 q 366 69 355 68 q 354 68 353 68 q 343 68 334 76 q 325 83 324 96 q 315 155 315 318 q 295 318 279 318 q 96 320 83 321 q 68 321 60 329 q 51 337 50 347 q 50 357 58 366 q 65 374 80 376 q 142 384 315 384 q 317 558 324 588 q 326 601 336 608 q 347 615 361 613 q 374 612 382 604 q 390 595 390 585 q 389 556 386 384 q 590 382 625 376 z"},"G":{"x_min":0,"x_max":728,"ha":728,"o":"m 758 156 q 736 103 705 72 q 674 42 631 20 q 629 -128 612 -224 q 595 -321 551 -365 q 518 -399 469 -399 q 439 -399 416 -366 q 392 -332 388 -277 q 384 -222 407 -151 q 433 -81 471 -46 q 509 -10 563 16 q 563 64 562 144 q 561 187 561 203 q 561 207 561 209 q 557 199 551 189 q 538 164 520 143 q 457 66 380 66 q 288 66 233 148 q 178 230 178 367 q 178 453 202 535 q 179 541 160 550 q 107 574 78 615 q 50 656 50 709 q 50 714 54 718 q 57 722 62 722 q 68 722 72 718 q 76 714 76 709 q 76 616 170 573 q 189 565 209 559 q 225 606 246 644 q 284 710 336 745 q 387 780 446 780 q 479 780 502 766 q 525 751 535 726 q 542 707 541 685 q 539 625 488 580 q 436 534 337 524 q 302 521 267 524 q 248 455 248 381 q 248 267 290 193 q 335 114 414 114 q 477 114 529 201 l 529 202 q 560 259 560 324 q 560 340 570 349 q 580 358 593 358 q 607 358 618 348 q 629 339 629 324 q 629 319 629 291 q 630 235 631 203 q 632 96 632 49 q 702 88 735 166 q 740 178 752 173 q 763 168 758 156 z m 306 623 q 287 590 274 549 q 332 545 386 558 q 440 572 471 600 q 513 636 515 685 q 515 685 515 686 q 516 710 504 722 q 493 734 469 734 q 369 734 306 623 z m 498 -345 q 557 -285 562 -13 q 517 -36 486 -68 q 454 -100 431 -160 q 416 -201 413 -246 q 411 -319 439 -350 q 449 -362 462 -362 q 482 -362 498 -345 z"},"q":{"x_min":0,"x_max":363,"ha":363,"o":"m 431 -192 q 437 -228 437 -262 q 437 -325 418 -362 q 398 -398 363 -398 q 311 -398 276 -362 q 229 -315 214 -210 q 200 -105 201 71 q 199 66 196 60 q 157 -13 102 -13 q 52 -13 24 36 q 0 77 0 139 q 0 216 35 274 q 70 333 130 333 q 175 333 204 298 q 204 301 204 305 q 204 319 214 328 q 225 338 239 338 q 253 338 262 330 q 273 320 273 305 q 273 295 272 242 q 271 178 271 163 q 271 145 271 104 q 270 47 270 15 q 304 25 343 76 q 382 128 393 165 q 397 177 409 173 q 421 169 418 157 q 403 111 359 56 q 332 21 305 4 q 358 -17 394 -83 q 419 -130 430 -190 q 430 -190 431 -191 z m 203 231 l 203 232 q 203 233 203 235 q 203 237 202 239 q 199 263 182 278 q 165 292 148 292 q 113 292 92 246 q 71 202 71 140 q 71 92 84 60 q 97 27 117 27 q 149 27 178 82 q 197 122 202 166 q 203 205 203 231 z m 390 -350 q 423 -313 405 -195 q 395 -139 371 -95 q 331 -21 270 -14 q 272 -283 332 -343 q 349 -360 371 -360 q 382 -360 390 -350 z"},"d":{"x_min":0,"x_max":403,"ha":403,"o":"m 435 156 q 433 151 430 143 q 414 110 404 91 q 404 89 403 88 q 402 86 400 83 q 394 73 391 67 q 390 67 390 66 q 389 65 389 65 q 341 -12 285 -12 q 221 -12 206 91 q 202 80 197 71 q 182 37 161 16 q 134 -12 102 -12 q 52 -12 24 37 q 0 78 0 140 q 0 217 35 276 q 70 334 130 334 q 173 334 201 299 q 201 452 216 548 q 231 643 275 687 q 310 722 363 722 q 425 722 438 665 q 449 622 428 554 q 425 544 423 537 q 411 503 392 467 q 365 414 332 374 q 299 333 268 314 q 269 274 270 209 q 271 177 271 162 q 272 35 316 35 q 341 35 371 84 q 372 86 372 86 q 386 110 406 154 q 410 162 412 167 q 418 179 430 174 q 441 168 435 156 z m 369 478 q 386 511 397 543 q 398 544 398 544 q 398 545 398 545 q 401 552 403 559 q 408 577 410 596 q 413 615 412 636 q 410 657 402 670 q 391 685 370 685 q 348 685 331 667 q 271 607 269 345 q 322 387 369 478 z m 175 83 q 201 139 201 191 q 201 192 201 192 q 201 193 201 194 q 201 204 201 214 q 201 215 201 217 q 201 247 187 270 q 173 293 148 293 q 113 293 92 247 q 71 203 71 141 q 71 92 84 60 q 97 28 117 28 q 146 28 175 82 z"},"1":{"x_min":0,"x_max":159,"ha":159,"o":"m 99 714 q 113 713 122 704 q 130 696 129 685 q 128 650 124 256 q 122 17 121 1 q 121 -13 112 -22 q 104 -30 92 -31 q 92 -31 91 -31 q 80 -31 71 -24 q 62 -16 60 -2 q 48 81 50 367 q 52 653 60 688 q 63 702 74 709 q 85 716 99 714 z"},"5":{"x_min":0,"x_max":439,"ha":439,"o":"m 406 698 q 384 672 309 672 q 260 672 181 683 q 179 636 175 479 q 173 429 173 424 q 173 421 172 418 q 281 411 340 357 q 399 302 399 215 q 399 162 376 110 q 354 57 313 22 q 272 -14 224 -14 q 152 -14 104 34 q 78 61 64 96 q 50 130 50 159 q 50 160 50 161 l 50 162 q 50 167 54 170 q 58 174 63 174 q 68 174 72 170 q 76 167 76 162 q 76 159 76 158 q 77 137 90 111 q 103 85 123 65 q 160 27 204 27 q 257 27 294 82 q 330 136 330 209 q 330 286 287 336 q 238 392 147 393 q 143 393 141 393 q 140 393 139 394 q 115 397 111 421 q 101 505 102 580 q 104 654 112 689 q 116 710 139 714 q 140 714 140 714 q 146 715 151 714 q 156 714 161 712 q 162 712 163 712 q 164 712 164 711 q 359 682 386 714 q 394 724 404 716 q 414 708 406 698 z"}}}
